<svg width="1559" height="624" viewBox="0 0 1559 624" fill="none" xmlns="http://www.w3.org/2000/svg">
<g opacity="0.4">
<path d="M385.961 495.075C535.906 560.233 642.546 581.003 909.417 581.003L343.738 673.319L-16.2396 542.272C68.2063 446.242 195.957 412.51 385.961 495.075Z" fill="#B7EE81"/>
<path d="M385.961 495.075C535.906 560.233 642.546 581.003 909.417 581.003L343.738 673.319L-16.2396 542.272C68.2063 446.242 195.957 412.51 385.961 495.075Z" fill="white" fill-opacity="0.85"/>
</g>
<path d="M1564.41 285.506C1573.07 219.717 1607.72 94.5055 1637.49 89.7305L1580.65 693.503H-21.6528V431.939C68.928 491.184 318.104 600.656 563.514 600.656C777.876 600.656 856.909 571.137 926.198 543.356C1037.71 498.644 1075.6 477.784 1240.7 543.356C1442.62 623.546 1536.89 494.6 1564.41 285.506Z" fill="#B7EE81"/>
<path d="M1564.41 285.506C1573.07 219.717 1607.72 94.5055 1637.49 89.7305L1580.65 693.503H-21.6528V431.939C68.928 491.184 318.104 600.656 563.514 600.656C777.876 600.656 856.909 571.137 926.198 543.356C1037.71 498.644 1075.6 477.784 1240.7 543.356C1442.62 623.546 1536.89 494.6 1564.41 285.506Z" fill="white" fill-opacity="0.65"/>
</svg>
