<svg width="683" height="693" viewBox="0 0 683 693" fill="none" xmlns="http://www.w3.org/2000/svg">
<path d="M328.163 158.405H120.973C117.422 158.405 114.543 161.348 114.543 164.979V316.914C114.543 320.545 117.422 323.489 120.973 323.489H328.163C331.714 323.489 334.593 320.545 334.593 316.914V164.979C334.593 161.348 331.714 158.405 328.163 158.405Z" fill="#F2F2F2"/>
<path fill-rule="evenodd" clip-rule="evenodd" d="M180.958 305.645V191.364C180.958 190.121 181.943 189.114 183.158 189.114H318.642C319.857 189.114 320.842 190.121 320.842 191.364V306.067C320.842 307.076 320.021 307.894 319.008 307.894H183.158C181.943 307.894 180.958 306.887 180.958 305.645Z" fill="white"/>
<path fill-rule="evenodd" clip-rule="evenodd" d="M208.869 211.921H200.863C200.243 211.921 199.741 211.421 199.741 210.804C199.741 210.187 200.243 209.687 200.863 209.687H208.869C209.489 209.687 209.991 210.187 209.991 210.804C209.991 211.421 209.489 211.921 208.869 211.921Z" fill="white"/>
<path fill-rule="evenodd" clip-rule="evenodd" d="M208.998 217.283H200.992C200.373 217.283 199.87 216.783 199.87 216.166C199.87 215.549 200.373 215.049 200.992 215.049H208.998C209.618 215.049 210.12 215.549 210.12 216.166C210.12 216.783 209.618 217.283 208.998 217.283Z" fill="white"/>
<path d="M307.257 289.054C307.713 289.054 308.082 289.431 308.082 289.897C308.082 290.347 307.737 290.715 307.302 290.739L307.257 290.74H194.149C193.693 290.74 193.324 290.363 193.324 289.897C193.324 289.447 193.669 289.079 194.103 289.055L194.149 289.054H307.257Z" fill="#2A84C6"/>
<path d="M307.257 289.054C307.713 289.054 308.082 289.431 308.082 289.897C308.082 290.347 307.737 290.715 307.302 290.739L307.257 290.74H194.149C193.693 290.74 193.324 290.363 193.324 289.897C193.324 289.447 193.669 289.079 194.103 289.055L194.149 289.054H307.257Z" fill="white" fill-opacity="0.85"/>
<path d="M289.18 296.772C289.636 296.772 290.005 297.149 290.005 297.615C290.005 298.065 289.66 298.433 289.226 298.457L289.18 298.459H194.149C193.693 298.459 193.324 298.081 193.324 297.615C193.324 297.165 193.669 296.797 194.103 296.773L194.149 296.772H289.18Z" fill="#2A84C6"/>
<path d="M289.18 296.772C289.636 296.772 290.005 297.149 290.005 297.615C290.005 298.065 289.66 298.433 289.226 298.457L289.18 298.459H194.149C193.693 298.459 193.324 298.081 193.324 297.615C193.324 297.165 193.669 296.797 194.103 296.773L194.149 296.772H289.18Z" fill="white" fill-opacity="0.85"/>
<path d="M120.437 150.967H328.588C331.843 150.967 334.482 153.606 334.482 156.861V174.426H114.543V156.861C114.543 153.606 117.182 150.967 120.437 150.967Z" fill="#1443BD"/>
<path d="M120.437 150.967H328.588C331.843 150.967 334.482 153.606 334.482 156.861V174.426H114.543V156.861C114.543 153.606 117.182 150.967 120.437 150.967Z" fill="black" fill-opacity="0.5"/>
<path d="M126.933 166.818C129.257 166.818 131.14 164.935 131.14 162.612C131.14 160.288 129.257 158.405 126.933 158.405C124.61 158.405 122.726 160.288 122.726 162.612C122.726 164.935 124.61 166.818 126.933 166.818Z" fill="#F56D7E"/>
<path d="M143.3 166.818C145.624 166.818 147.507 164.935 147.507 162.612C147.507 160.288 145.624 158.405 143.3 158.405C140.977 158.405 139.094 160.288 139.094 162.612C139.094 164.935 140.977 166.818 143.3 166.818Z" fill="#B7EE81"/>
<path d="M143.3 166.818C145.624 166.818 147.507 164.935 147.507 162.612C147.507 160.288 145.624 158.405 143.3 158.405C140.977 158.405 139.094 160.288 139.094 162.612C139.094 164.935 140.977 166.818 143.3 166.818Z" fill="white" fill-opacity="0.2"/>
<path d="M158.759 166.818C161.082 166.818 162.966 164.935 162.966 162.612C162.966 160.288 161.082 158.405 158.759 158.405C156.435 158.405 154.552 160.288 154.552 162.612C154.552 164.935 156.435 166.818 158.759 166.818Z" fill="#B7EE81"/>
<path d="M158.759 166.818C161.082 166.818 162.966 164.935 162.966 162.612C162.966 160.288 161.082 158.405 158.759 158.405C156.435 158.405 154.552 160.288 154.552 162.612C154.552 164.935 156.435 166.818 158.759 166.818Z" fill="white" fill-opacity="0.2"/>
<path d="M189.083 246.15L186.377 244.114L189.083 242.083L191.79 244.114L189.083 246.15Z" fill="white"/>
<path d="M170.294 189.087H131.536C130.186 189.087 129.092 190.206 129.092 191.586V305.596C129.092 306.976 130.186 308.095 131.536 308.095H170.294C171.644 308.095 172.738 306.976 172.738 305.596V191.586C172.738 190.206 171.644 189.087 170.294 189.087Z" fill="#1443BD"/>
<path d="M170.294 189.087H131.536C130.186 189.087 129.092 190.206 129.092 191.586V305.596C129.092 306.976 130.186 308.095 131.536 308.095H170.294C171.644 308.095 172.738 306.976 172.738 305.596V191.586C172.738 190.206 171.644 189.087 170.294 189.087Z" fill="white" fill-opacity="0.65"/>
<path d="M161.964 236.504H139.573C138.806 236.504 138.184 237.139 138.184 237.923V241.434C138.184 242.219 138.806 242.854 139.573 242.854H161.964C162.731 242.854 163.352 242.219 163.352 241.434V237.923C163.352 237.139 162.731 236.504 161.964 236.504Z" fill="white"/>
<path d="M161.985 248.591H139.552C138.796 248.591 138.184 249.217 138.184 249.989V253.351C138.184 254.123 138.796 254.749 139.552 254.749H161.985C162.74 254.749 163.352 254.123 163.352 253.351V249.989C163.352 249.217 162.74 248.591 161.985 248.591Z" fill="#2A84C6"/>
<path d="M161.985 248.591H139.552C138.796 248.591 138.184 249.217 138.184 249.989V253.351C138.184 254.123 138.796 254.749 139.552 254.749H161.985C162.74 254.749 163.352 254.123 163.352 253.351V249.989C163.352 249.217 162.74 248.591 161.985 248.591Z" fill="white" fill-opacity="0.85"/>
<path d="M161.985 260.678H139.552C138.796 260.678 138.184 261.304 138.184 262.076V265.438C138.184 266.21 138.796 266.836 139.552 266.836H161.985C162.74 266.836 163.352 266.21 163.352 265.438V262.076C163.352 261.304 162.74 260.678 161.985 260.678Z" fill="#B7EE81"/>
<path d="M161.985 260.678H139.552C138.796 260.678 138.184 261.304 138.184 262.076V265.438C138.184 266.21 138.796 266.836 139.552 266.836H161.985C162.74 266.836 163.352 266.21 163.352 265.438V262.076C163.352 261.304 162.74 260.678 161.985 260.678Z" fill="white" fill-opacity="0.5"/>
<path d="M161.985 272.764H139.552C138.796 272.764 138.184 273.39 138.184 274.162V277.524C138.184 278.296 138.796 278.922 139.552 278.922H161.985C162.74 278.922 163.352 278.296 163.352 277.524V274.162C163.352 273.39 162.74 272.764 161.985 272.764Z" fill="#B7EE81"/>
<path d="M161.985 272.764H139.552C138.796 272.764 138.184 273.39 138.184 274.162V277.524C138.184 278.296 138.796 278.922 139.552 278.922H161.985C162.74 278.922 163.352 278.296 163.352 277.524V274.162C163.352 273.39 162.74 272.764 161.985 272.764Z" fill="white" fill-opacity="0.2"/>
<path fill-rule="evenodd" clip-rule="evenodd" d="M193.466 243.066C192.657 243.066 192 242.38 192 241.533C192 240.686 192.657 240 193.466 240H220.355C221.165 240 221.822 240.686 221.822 241.533C221.822 242.38 221.165 243.066 220.355 243.066H193.466Z" fill="#2A84C6"/>
<path fill-rule="evenodd" clip-rule="evenodd" d="M193.466 243.066C192.657 243.066 192 242.38 192 241.533C192 240.686 192.657 240 193.466 240H220.355C221.165 240 221.822 240.686 221.822 241.533C221.822 242.38 221.165 243.066 220.355 243.066H193.466Z" fill="white" fill-opacity="0.2"/>
<path fill-rule="evenodd" clip-rule="evenodd" d="M201.466 250.066C200.657 250.066 200 249.38 200 248.533C200 247.686 200.657 247 201.466 247H211.932C212.742 247 213.398 247.686 213.398 248.533C213.398 249.38 212.742 250.066 211.932 250.066H201.466Z" fill="#2A84C6"/>
<path fill-rule="evenodd" clip-rule="evenodd" d="M201.466 250.066C200.657 250.066 200 249.38 200 248.533C200 247.686 200.657 247 201.466 247H211.932C212.742 247 213.398 247.686 213.398 248.533C213.398 249.38 212.742 250.066 211.932 250.066H201.466Z" fill="white" fill-opacity="0.85"/>
<g filter="url(#filter0_i_303_202)">
<rect x="192" y="200" width="30.4615" height="36" rx="4" fill="white"/>
</g>
<path fill-rule="evenodd" clip-rule="evenodd" d="M215.413 219.192C213.925 217.399 209.317 213.929 211.926 211.185C214.269 208.72 216.262 211.941 219 215.353L215.413 219.192Z" fill="#F56D7E"/>
<path fill-rule="evenodd" clip-rule="evenodd" d="M198.357 219.192C199.844 217.399 204.756 213.52 202.147 210.775C199.804 208.311 197.508 211.941 194.769 215.353L198.357 219.192Z" fill="#F56D7E"/>
<path fill-rule="evenodd" clip-rule="evenodd" d="M201.737 224.475C202.25 226.6 202.349 226.91 202.349 226.91C205.35 227.112 211.845 226.91 211.845 226.91C212.112 225.639 212.391 224.204 212.391 224.204C212.391 224.204 215.637 211.315 214.6 210.581C213.644 209.905 211.943 209.372 209.7 209C209.637 209.138 209.008 210.218 206.908 210.243C204.61 210.271 204.116 209.249 204.032 209.07C202.15 209.301 200.963 209.446 199.791 210.167C199.429 210.389 199.675 215.931 201.737 224.475Z" fill="#F56D7E"/>
<path fill-rule="evenodd" clip-rule="evenodd" d="M195.466 281.066C194.657 281.066 194 280.38 194 279.533C194 278.686 194.657 278 195.466 278H205.932C206.742 278 207.398 278.686 207.398 279.533C207.398 280.38 206.742 281.066 205.932 281.066H195.466Z" fill="#2A84C6"/>
<path fill-rule="evenodd" clip-rule="evenodd" d="M195.466 281.066C194.657 281.066 194 280.38 194 279.533C194 278.686 194.657 278 195.466 278H205.932C206.742 278 207.398 278.686 207.398 279.533C207.398 280.38 206.742 281.066 205.932 281.066H195.466Z" fill="white" fill-opacity="0.85"/>
<path fill-rule="evenodd" clip-rule="evenodd" d="M195.114 272C193.947 272 193 271.328 193 270.5C193 269.672 193.947 269 195.114 269H233.886C235.054 269 236 269.672 236 270.5C236 271.328 235.054 272 233.886 272H195.114Z" fill="#2A84C6"/>
<path fill-rule="evenodd" clip-rule="evenodd" d="M195.114 272C193.947 272 193 271.328 193 270.5C193 269.672 193.947 269 195.114 269H233.886C235.054 269 236 269.672 236 270.5C236 271.328 235.054 272 233.886 272H195.114Z" fill="white" fill-opacity="0.2"/>
<path fill-rule="evenodd" clip-rule="evenodd" d="M215.114 281C213.947 281 213 280.328 213 279.5C213 278.672 213.947 278 215.114 278H253.886C255.054 278 256 278.672 256 279.5C256 280.328 255.054 281 253.886 281H215.114Z" fill="#2A84C6"/>
<path fill-rule="evenodd" clip-rule="evenodd" d="M215.114 281C213.947 281 213 280.328 213 279.5C213 278.672 213.947 278 215.114 278H253.886C255.054 278 256 278.672 256 279.5C256 280.328 255.054 281 253.886 281H215.114Z" fill="white" fill-opacity="0.85"/>
<path fill-rule="evenodd" clip-rule="evenodd" d="M237.466 243.066C236.657 243.066 236 242.38 236 241.533C236 240.686 236.657 240 237.466 240H264.355C265.165 240 265.822 240.686 265.822 241.533C265.822 242.38 265.165 243.066 264.355 243.066H237.466Z" fill="#2A84C6"/>
<path fill-rule="evenodd" clip-rule="evenodd" d="M237.466 243.066C236.657 243.066 236 242.38 236 241.533C236 240.686 236.657 240 237.466 240H264.355C265.165 240 265.822 240.686 265.822 241.533C265.822 242.38 265.165 243.066 264.355 243.066H237.466Z" fill="white" fill-opacity="0.2"/>
<path fill-rule="evenodd" clip-rule="evenodd" d="M245.466 250.066C244.657 250.066 244 249.38 244 248.533C244 247.686 244.657 247 245.466 247H255.932C256.742 247 257.398 247.686 257.398 248.533C257.398 249.38 256.742 250.066 255.932 250.066H245.466Z" fill="#2A84C6"/>
<path fill-rule="evenodd" clip-rule="evenodd" d="M245.466 250.066C244.657 250.066 244 249.38 244 248.533C244 247.686 244.657 247 245.466 247H255.932C256.742 247 257.398 247.686 257.398 248.533C257.398 249.38 256.742 250.066 255.932 250.066H245.466Z" fill="white" fill-opacity="0.85"/>
<g filter="url(#filter1_i_303_202)">
<rect x="236" y="200" width="30.4615" height="36" rx="4" fill="white"/>
</g>
<path fill-rule="evenodd" clip-rule="evenodd" d="M259.413 219.192C257.925 217.399 253.317 213.929 255.926 211.185C258.269 208.72 260.262 211.941 263 215.353L259.413 219.192Z" fill="#1443BD"/>
<path fill-rule="evenodd" clip-rule="evenodd" d="M259.413 219.192C257.925 217.399 253.317 213.929 255.926 211.185C258.269 208.72 260.262 211.941 263 215.353L259.413 219.192Z" fill="white" fill-opacity="0.65"/>
<path fill-rule="evenodd" clip-rule="evenodd" d="M242.357 219.192C243.844 217.399 248.756 213.52 246.147 210.775C243.804 208.311 241.508 211.941 238.769 215.353L242.357 219.192Z" fill="#1443BD"/>
<path fill-rule="evenodd" clip-rule="evenodd" d="M242.357 219.192C243.844 217.399 248.756 213.52 246.147 210.775C243.804 208.311 241.508 211.941 238.769 215.353L242.357 219.192Z" fill="white" fill-opacity="0.65"/>
<path fill-rule="evenodd" clip-rule="evenodd" d="M245.737 224.475C246.25 226.6 246.349 226.91 246.349 226.91C249.35 227.112 255.845 226.91 255.845 226.91C256.112 225.639 256.391 224.204 256.391 224.204C256.391 224.204 259.637 211.315 258.6 210.581C257.644 209.905 255.943 209.372 253.7 209C253.637 209.138 253.008 210.218 250.908 210.243C248.61 210.271 248.116 209.249 248.032 209.07C246.15 209.301 244.963 209.446 243.791 210.167C243.429 210.389 243.675 215.931 245.737 224.475Z" fill="#1443BD"/>
<path fill-rule="evenodd" clip-rule="evenodd" d="M245.737 224.475C246.25 226.6 246.349 226.91 246.349 226.91C249.35 227.112 255.845 226.91 255.845 226.91C256.112 225.639 256.391 224.204 256.391 224.204C256.391 224.204 259.637 211.315 258.6 210.581C257.644 209.905 255.943 209.372 253.7 209C253.637 209.138 253.008 210.218 250.908 210.243C248.61 210.271 248.116 209.249 248.032 209.07C246.15 209.301 244.963 209.446 243.791 210.167C243.429 210.389 243.675 215.931 245.737 224.475Z" fill="white" fill-opacity="0.65"/>
<path fill-rule="evenodd" clip-rule="evenodd" d="M281.466 243.066C280.657 243.066 280 242.38 280 241.533C280 240.686 280.657 240 281.466 240H308.355C309.165 240 309.822 240.686 309.822 241.533C309.822 242.38 309.165 243.066 308.355 243.066H281.466Z" fill="#2A84C6"/>
<path fill-rule="evenodd" clip-rule="evenodd" d="M281.466 243.066C280.657 243.066 280 242.38 280 241.533C280 240.686 280.657 240 281.466 240H308.355C309.165 240 309.822 240.686 309.822 241.533C309.822 242.38 309.165 243.066 308.355 243.066H281.466Z" fill="white" fill-opacity="0.2"/>
<path fill-rule="evenodd" clip-rule="evenodd" d="M289.466 250.066C288.657 250.066 288 249.38 288 248.533C288 247.686 288.657 247 289.466 247H299.932C300.742 247 301.398 247.686 301.398 248.533C301.398 249.38 300.742 250.066 299.932 250.066H289.466Z" fill="#2A84C6"/>
<path fill-rule="evenodd" clip-rule="evenodd" d="M289.466 250.066C288.657 250.066 288 249.38 288 248.533C288 247.686 288.657 247 289.466 247H299.932C300.742 247 301.398 247.686 301.398 248.533C301.398 249.38 300.742 250.066 299.932 250.066H289.466Z" fill="white" fill-opacity="0.85"/>
<g filter="url(#filter2_i_303_202)">
<rect x="280" y="200" width="30.4615" height="36" rx="4" fill="white"/>
</g>
<path fill-rule="evenodd" clip-rule="evenodd" d="M303.413 219.192C301.925 217.399 297.317 213.929 299.926 211.185C302.269 208.72 304.262 211.941 307 215.353L303.413 219.192Z" fill="#B7EE81"/>
<path fill-rule="evenodd" clip-rule="evenodd" d="M303.413 219.192C301.925 217.399 297.317 213.929 299.926 211.185C302.269 208.72 304.262 211.941 307 215.353L303.413 219.192Z" fill="white" fill-opacity="0.5"/>
<path fill-rule="evenodd" clip-rule="evenodd" d="M286.357 219.192C287.844 217.399 292.756 213.52 290.147 210.775C287.804 208.311 285.508 211.941 282.769 215.353L286.357 219.192Z" fill="#B7EE81"/>
<path fill-rule="evenodd" clip-rule="evenodd" d="M286.357 219.192C287.844 217.399 292.756 213.52 290.147 210.775C287.804 208.311 285.508 211.941 282.769 215.353L286.357 219.192Z" fill="white" fill-opacity="0.5"/>
<path fill-rule="evenodd" clip-rule="evenodd" d="M289.737 224.475C290.25 226.6 290.349 226.91 290.349 226.91C293.35 227.112 299.845 226.91 299.845 226.91C300.112 225.639 300.391 224.204 300.391 224.204C300.391 224.204 303.637 211.315 302.6 210.581C301.644 209.905 299.943 209.372 297.7 209C297.637 209.138 297.008 210.218 294.908 210.243C292.61 210.271 292.116 209.249 292.032 209.07C290.15 209.301 288.963 209.446 287.791 210.167C287.429 210.389 287.675 215.931 289.737 224.475Z" fill="#B7EE81"/>
<path fill-rule="evenodd" clip-rule="evenodd" d="M289.737 224.475C290.25 226.6 290.349 226.91 290.349 226.91C293.35 227.112 299.845 226.91 299.845 226.91C300.112 225.639 300.391 224.204 300.391 224.204C300.391 224.204 303.637 211.315 302.6 210.581C301.644 209.905 299.943 209.372 297.7 209C297.637 209.138 297.008 210.218 294.908 210.243C292.61 210.271 292.116 209.249 292.032 209.07C290.15 209.301 288.963 209.446 287.791 210.167C287.429 210.389 287.675 215.931 289.737 224.475Z" fill="white" fill-opacity="0.5"/>
<path fill-rule="evenodd" clip-rule="evenodd" d="M334.607 414.956C340.636 423.491 352.134 425.727 360.806 420.052L439.372 368.654C450.929 361.094 453.893 345.158 445.861 333.788C437.922 322.552 422.439 320.319 411.769 328.87L338.367 387.709C330.162 394.286 328.503 406.315 334.607 414.956Z" fill="#FFC999"/>
<path fill-rule="evenodd" clip-rule="evenodd" d="M392.803 402.811L442.708 370.445C453.245 362.069 453.251 340.587 444.874 329.962C436.496 319.34 421.227 317.806 410.988 326.559L364.208 366.552C364.208 366.552 378.207 395.461 392.803 402.811Z" fill="#1443BD"/>
<path fill-rule="evenodd" clip-rule="evenodd" d="M392.803 402.811L442.708 370.445C453.245 362.069 453.251 340.587 444.874 329.962C436.496 319.34 421.227 317.806 410.988 326.559L364.208 366.552C364.208 366.552 378.207 395.461 392.803 402.811Z" fill="white" fill-opacity="0.5"/>
<path fill-rule="evenodd" clip-rule="evenodd" d="M301.487 300.542C296.442 303.21 294.141 309.31 296.126 314.752L331.035 410.403C335.046 421.387 347.448 426.437 357.744 421.279C367.807 416.236 371.61 403.548 366.037 393.606L316.384 305.031C313.394 299.697 306.828 297.718 301.487 300.542Z" fill="#FFC999"/>
<path fill-rule="evenodd" clip-rule="evenodd" d="M472.491 322.387L459.854 308.286L463.837 261.877L499.175 265.243L498.998 311.168L472.491 322.387Z" fill="#FFC999"/>
<path fill-rule="evenodd" clip-rule="evenodd" d="M454.805 257.294C454.805 257.294 449.559 251.394 447.164 255.18C444.771 258.968 448.352 272.883 454.21 273.423C462.035 274.144 454.805 257.294 454.805 257.294Z" fill="#FFC999"/>
<path fill-rule="evenodd" clip-rule="evenodd" d="M487.907 293.687C487.907 293.687 476.102 302.971 461.133 292.933C450.357 285.707 449.752 260.757 452.419 242.542C453.928 232.234 458.761 226.816 468.718 224.066C478.676 221.317 505.426 222.059 504.675 252.507C503.838 286.421 487.907 293.687 487.907 293.687Z" fill="#FFC999"/>
<path d="M469.487 247.88L469.39 247.893C469.129 247.952 468.954 248.192 468.964 248.455L468.976 248.555L470.348 254.92L466.479 272.043C466.409 272.352 466.605 272.65 466.896 272.712L466.987 272.723L474.117 273.012C474.417 273.024 474.67 272.785 474.682 272.479C474.692 272.203 474.504 271.966 474.248 271.913L474.16 271.902L467.686 271.639L471.434 255.046C471.446 254.993 471.45 254.938 471.447 254.883L471.435 254.802L470.037 248.316C469.979 248.049 469.744 247.87 469.487 247.88Z" fill="#DD936F"/>
<path d="M479.879 277.458C479.787 277.04 479.381 276.778 478.973 276.871L478.702 276.926L478.595 276.946C478.269 277.004 477.884 277.063 477.443 277.118C474.478 277.49 470.872 277.5 466.802 276.907C466.387 276.846 466.003 277.141 465.944 277.565C465.885 277.989 466.173 278.382 466.588 278.442C470.797 279.056 474.535 279.045 477.628 278.658L478.161 278.586C478.33 278.561 478.49 278.536 478.64 278.511L479.174 278.413C479.229 278.402 479.273 278.392 479.305 278.385C479.714 278.291 479.971 277.876 479.879 277.458Z" fill="#F56D7E"/>
<path fill-rule="evenodd" clip-rule="evenodd" d="M500.899 265.451L507.045 253.901C507.045 253.901 511.217 237.105 507.602 229.714C501.991 218.246 488.385 218.135 480.402 214.878C472.419 211.619 472.576 208.844 469.289 209.207C466.001 209.569 453.062 218.222 451.363 227.63C449.869 235.901 451.321 257.136 451.321 257.136C451.321 257.136 454.153 238.457 456.064 233.559C462.539 231.023 485.784 231.597 495.394 234.951C495.394 234.951 496.05 241.359 496.403 245.87C501.486 249.826 500.899 265.451 500.899 265.451Z" fill="#1443BD"/>
<path fill-rule="evenodd" clip-rule="evenodd" d="M500.899 265.451L507.045 253.901C507.045 253.901 511.217 237.105 507.602 229.714C501.991 218.246 488.385 218.135 480.402 214.878C472.419 211.619 472.576 208.844 469.289 209.207C466.001 209.569 453.062 218.222 451.363 227.63C449.869 235.901 451.321 257.136 451.321 257.136C451.321 257.136 454.153 238.457 456.064 233.559C462.539 231.023 485.784 231.597 495.394 234.951C495.394 234.951 496.05 241.359 496.403 245.87C501.486 249.826 500.899 265.451 500.899 265.451Z" fill="black" fill-opacity="0.5"/>
<path d="M460.947 291.869C460.751 291.636 460.408 291.61 460.181 291.81C459.953 292.009 459.927 292.36 460.123 292.593C460.271 292.77 460.556 293.063 460.979 293.432C461.675 294.04 462.516 294.646 463.505 295.21C468.828 298.245 475.941 298.887 484.911 295.674C485.194 295.572 485.343 295.256 485.244 294.966C485.145 294.677 484.835 294.524 484.552 294.626C475.876 297.733 469.086 297.12 464.034 294.24C463.11 293.713 462.327 293.15 461.685 292.588L461.425 292.355C461.191 292.138 461.032 291.97 460.947 291.869Z" fill="#DD936F"/>
<path d="M466.485 245.941C463.982 244.909 461.445 244.342 459.017 244.5C457.306 244.611 455.722 245.086 454.313 245.974C453.633 246.403 453.421 247.315 453.84 248.011C454.26 248.707 455.152 248.923 455.832 248.494C456.817 247.874 457.943 247.536 459.201 247.455C461.131 247.329 463.266 247.806 465.401 248.687C465.941 248.909 466.448 249.145 466.913 249.382L467.254 249.56C467.58 249.735 467.805 249.867 467.913 249.934C468.594 250.363 469.486 250.145 469.905 249.449C470.324 248.752 470.111 247.84 469.43 247.412L469.122 247.225C468.504 246.864 467.6 246.401 466.485 245.941Z" fill="#1443BD"/>
<path d="M466.485 245.941C463.982 244.909 461.445 244.342 459.017 244.5C457.306 244.611 455.722 245.086 454.313 245.974C453.633 246.403 453.421 247.315 453.84 248.011C454.26 248.707 455.152 248.923 455.832 248.494C456.817 247.874 457.943 247.536 459.201 247.455C461.131 247.329 463.266 247.806 465.401 248.687C465.941 248.909 466.448 249.145 466.913 249.382L467.254 249.56C467.58 249.735 467.805 249.867 467.913 249.934C468.594 250.363 469.486 250.145 469.905 249.449C470.324 248.752 470.111 247.84 469.43 247.412L469.122 247.225C468.504 246.864 467.6 246.401 466.485 245.941Z" fill="black" fill-opacity="0.5"/>
<path d="M490.78 248.468C488.277 247.435 485.74 246.869 483.312 247.027C481.602 247.138 480.018 247.612 478.609 248.5C477.928 248.929 477.716 249.841 478.136 250.537C478.555 251.233 479.447 251.45 480.128 251.021C481.112 250.401 482.238 250.063 483.496 249.981C485.427 249.856 487.561 250.333 489.697 251.214C490.236 251.436 490.743 251.671 491.208 251.909L491.549 252.087C491.875 252.261 492.101 252.393 492.209 252.461C492.89 252.889 493.781 252.672 494.2 251.976C494.619 251.279 494.407 250.367 493.725 249.939L493.417 249.752C492.799 249.39 491.896 248.928 490.78 248.468Z" fill="#1443BD"/>
<path d="M490.78 248.468C488.277 247.435 485.74 246.869 483.312 247.027C481.602 247.138 480.018 247.612 478.609 248.5C477.928 248.929 477.716 249.841 478.136 250.537C478.555 251.233 479.447 251.45 480.128 251.021C481.112 250.401 482.238 250.063 483.496 249.981C485.427 249.856 487.561 250.333 489.697 251.214C490.236 251.436 490.743 251.671 491.208 251.909L491.549 252.087C491.875 252.261 492.101 252.393 492.209 252.461C492.89 252.889 493.781 252.672 494.2 251.976C494.619 251.279 494.407 250.367 493.725 249.939L493.417 249.752C492.799 249.39 491.896 248.928 490.78 248.468Z" fill="black" fill-opacity="0.5"/>
<path d="M469.688 282.514C469.389 282.496 469.132 282.73 469.115 283.036C469.099 283.312 469.283 283.552 469.538 283.61L469.625 283.623L473.898 283.877C474.198 283.895 474.454 283.661 474.472 283.355C474.488 283.079 474.304 282.839 474.049 282.781L473.961 282.768L469.688 282.514Z" fill="#DD936F"/>
<path d="M469.723 253.819C469.125 253.776 468.606 254.236 468.563 254.848C468.524 255.419 468.913 255.92 469.452 256.019L469.57 256.034L474.81 256.414C475.409 256.458 475.928 255.997 475.971 255.385C476.01 254.814 475.62 254.314 475.082 254.214L474.964 254.199L469.723 253.819Z" fill="#1443BD"/>
<path d="M469.723 253.819C469.125 253.776 468.606 254.236 468.563 254.848C468.524 255.419 468.913 255.92 469.452 256.019L469.57 256.034L474.81 256.414C475.409 256.458 475.928 255.997 475.971 255.385C476.01 254.814 475.62 254.314 475.082 254.214L474.964 254.199L469.723 253.819Z" fill="black" fill-opacity="0.5"/>
<path d="M474.271 257.543C473.174 257.021 472.048 256.742 470.941 256.854C470.006 256.948 469.151 257.324 468.434 258.009C467.995 258.427 467.972 259.13 468.381 259.578C468.79 260.027 469.477 260.051 469.916 259.633C470.274 259.291 470.681 259.112 471.155 259.064C471.812 258.997 472.579 259.187 473.355 259.557C473.769 259.753 474.083 259.948 474.242 260.063C474.73 260.419 475.409 260.303 475.757 259.803C476.105 259.304 475.991 258.61 475.503 258.255C475.243 258.066 474.819 257.803 474.271 257.543Z" fill="#1443BD"/>
<path d="M474.271 257.543C473.174 257.021 472.048 256.742 470.941 256.854C470.006 256.948 469.151 257.324 468.434 258.009C467.995 258.427 467.972 259.13 468.381 259.578C468.79 260.027 469.477 260.051 469.916 259.633C470.274 259.291 470.681 259.112 471.155 259.064C471.812 258.997 472.579 259.187 473.355 259.557C473.769 259.753 474.083 259.948 474.242 260.063C474.73 260.419 475.409 260.303 475.757 259.803C476.105 259.304 475.991 258.61 475.503 258.255C475.243 258.066 474.819 257.803 474.271 257.543Z" fill="black" fill-opacity="0.5"/>
<path d="M494.376 255.309C493.777 255.277 493.266 255.747 493.235 256.36C493.205 256.931 493.604 257.425 494.145 257.514L494.262 257.527L502.863 257.989C503.462 258.021 503.973 257.551 504.005 256.939C504.034 256.367 503.635 255.874 503.095 255.784L502.977 255.771L494.376 255.309Z" fill="#1443BD"/>
<path d="M494.376 255.309C493.777 255.277 493.266 255.747 493.235 256.36C493.205 256.931 493.604 257.425 494.145 257.514L494.262 257.527L502.863 257.989C503.462 258.021 503.973 257.551 504.005 256.939C504.034 256.367 503.635 255.874 503.095 255.784L502.977 255.771L494.376 255.309Z" fill="black" fill-opacity="0.5"/>
<path fill-rule="evenodd" clip-rule="evenodd" d="M493.773 254.643L477.355 253.669C476.21 253.601 475.227 254.493 475.168 255.664C475.06 257.852 474.981 261.365 475.366 264.401C475.821 267.979 478.811 270.332 482.323 270.707C486.708 271.177 490.653 271.414 492.781 269.199C496.023 265.824 495.612 259.927 495.722 256.824C495.763 255.686 494.887 254.708 493.773 254.643Z" fill="white"/>
<path d="M487.785 263.688C488.177 263.771 488.561 263.514 488.642 263.114C489.105 260.839 487.883 258.616 485.85 258.181C483.817 257.748 481.828 259.287 481.365 261.562C481.283 261.963 481.535 262.355 481.926 262.438C482.318 262.522 482.702 262.265 482.783 261.864C483.092 260.349 484.351 259.375 485.554 259.631C486.758 259.888 487.532 261.297 487.224 262.812C487.142 263.212 487.394 263.604 487.785 263.688Z" fill="#1443BD"/>
<path d="M487.785 263.688C488.177 263.771 488.561 263.514 488.642 263.114C489.105 260.839 487.883 258.616 485.85 258.181C483.817 257.748 481.828 259.287 481.365 261.562C481.283 261.963 481.535 262.355 481.926 262.438C482.318 262.522 482.702 262.265 482.783 261.864C483.092 260.349 484.351 259.375 485.554 259.631C486.758 259.888 487.532 261.297 487.224 262.812C487.142 263.212 487.394 263.604 487.785 263.688Z" fill="black" fill-opacity="0.5"/>
<path fill-rule="evenodd" clip-rule="evenodd" d="M468.177 252.937L449.59 251.834C448.743 254.57 448.798 265.35 451.857 267.841C456.001 270.383 464.688 269.905 466.161 267.653C468.397 264.236 469.535 257.533 469.664 254.626C469.703 253.741 469.043 252.988 468.177 252.937Z" fill="white"/>
<path d="M465.089 261.771C465.489 261.778 465.819 261.452 465.826 261.043C465.865 258.719 464.257 256.768 462.18 256.733C460.104 256.697 458.431 258.591 458.393 260.914C458.387 261.323 458.706 261.66 459.105 261.667C459.505 261.674 459.835 261.348 459.842 260.939C459.867 259.392 460.926 258.193 462.156 258.214C463.385 258.235 464.404 259.47 464.377 261.017C464.371 261.426 464.689 261.764 465.089 261.771Z" fill="#1443BD"/>
<path d="M465.089 261.771C465.489 261.778 465.819 261.452 465.826 261.043C465.865 258.719 464.257 256.768 462.18 256.733C460.104 256.697 458.431 258.591 458.393 260.914C458.387 261.323 458.706 261.66 459.105 261.667C459.505 261.674 459.835 261.348 459.842 260.939C459.867 259.392 460.926 258.193 462.156 258.214C463.385 258.235 464.404 259.47 464.377 261.017C464.371 261.426 464.689 261.764 465.089 261.771Z" fill="black" fill-opacity="0.5"/>
<path d="M475.201 253.092C474.602 253.073 474.1 253.554 474.081 254.167C474.063 254.739 474.472 255.224 475.014 255.302L475.132 255.312L495.514 255.975C496.114 255.994 496.615 255.513 496.634 254.9C496.652 254.328 496.243 253.843 495.701 253.765L495.583 253.755L475.201 253.092Z" fill="#1443BD"/>
<path d="M475.201 253.092C474.602 253.073 474.1 253.554 474.081 254.167C474.063 254.739 474.472 255.224 475.014 255.302L475.132 255.312L495.514 255.975C496.114 255.994 496.615 255.513 496.634 254.9C496.652 254.328 496.243 253.843 495.701 253.765L495.583 253.755L475.201 253.092Z" fill="black" fill-opacity="0.5"/>
<path d="M449.492 251.136C448.894 251.092 448.374 251.552 448.33 252.164C448.29 252.735 448.679 253.236 449.218 253.336L449.335 253.352L469.262 254.822C469.861 254.866 470.381 254.406 470.424 253.794C470.464 253.223 470.075 252.722 469.536 252.622L469.419 252.607L449.492 251.136Z" fill="#1443BD"/>
<path d="M449.492 251.136C448.894 251.092 448.374 251.552 448.33 252.164C448.29 252.735 448.679 253.236 449.218 253.336L449.335 253.352L469.262 254.822C469.861 254.866 470.381 254.406 470.424 253.794C470.464 253.223 470.075 252.722 469.536 252.622L469.419 252.607L449.492 251.136Z" fill="black" fill-opacity="0.5"/>
<path d="M477.376 253.3L493.794 254.274C495.104 254.351 496.132 255.499 496.084 256.838L496.066 257.569L496.047 258.895C496.013 260.864 495.943 261.964 495.731 263.319C495.328 265.894 494.49 267.948 493.039 269.459C491.108 271.469 488.284 271.718 482.285 271.075C478.452 270.665 475.467 268.067 475.007 264.448C474.68 261.87 474.65 258.814 474.806 255.645C474.875 254.27 476.029 253.22 477.376 253.3ZM477.334 254.039C476.436 253.985 475.663 254.644 475.542 255.533L475.529 255.683C475.375 258.811 475.404 261.828 475.725 264.353C476.139 267.61 478.842 269.963 482.36 270.339L483.145 270.42C488.375 270.932 490.892 270.638 492.523 268.94C493.853 267.555 494.636 265.638 495.017 263.202L495.088 262.719C495.239 261.607 495.295 260.571 495.324 258.874L495.357 256.921C495.358 256.884 495.359 256.848 495.361 256.811C495.394 255.875 494.671 255.067 493.752 255.013L477.334 254.039Z" fill="#1443BD"/>
<path d="M477.376 253.3L493.794 254.274C495.104 254.351 496.132 255.499 496.084 256.838L496.066 257.569L496.047 258.895C496.013 260.864 495.943 261.964 495.731 263.319C495.328 265.894 494.49 267.948 493.039 269.459C491.108 271.469 488.284 271.718 482.285 271.075C478.452 270.665 475.467 268.067 475.007 264.448C474.68 261.87 474.65 258.814 474.806 255.645C474.875 254.27 476.029 253.22 477.376 253.3ZM477.334 254.039C476.436 253.985 475.663 254.644 475.542 255.533L475.529 255.683C475.375 258.811 475.404 261.828 475.725 264.353C476.139 267.61 478.842 269.963 482.36 270.339L483.145 270.42C488.375 270.932 490.892 270.638 492.523 268.94C493.853 267.555 494.636 265.638 495.017 263.202L495.088 262.719C495.239 261.607 495.295 260.571 495.324 258.874L495.357 256.921C495.358 256.884 495.359 256.848 495.361 256.811C495.394 255.875 494.671 255.067 493.752 255.013L477.334 254.039Z" fill="black" fill-opacity="0.5"/>
<path d="M449.611 251.465L468.198 252.568C469.262 252.631 470.074 253.555 470.025 254.643C469.843 258.761 468.399 264.899 466.462 267.859C464.786 270.421 455.785 270.682 451.671 268.158C448.899 265.905 448.015 255.7 449.245 251.723C449.295 251.562 449.445 251.456 449.611 251.465ZM449.858 252.221L449.811 252.402C448.853 256.413 449.737 265.642 452.083 267.551C455.865 269.868 464.44 269.62 465.861 267.448C467.71 264.621 469.125 258.605 469.302 254.61C469.333 253.925 468.824 253.346 468.156 253.307L449.858 252.221Z" fill="#1443BD"/>
<path d="M449.611 251.465L468.198 252.568C469.262 252.631 470.074 253.555 470.025 254.643C469.843 258.761 468.399 264.899 466.462 267.859C464.786 270.421 455.785 270.682 451.671 268.158C448.899 265.905 448.015 255.7 449.245 251.723C449.295 251.562 449.445 251.456 449.611 251.465ZM449.858 252.221L449.811 252.402C448.853 256.413 449.737 265.642 452.083 267.551C455.865 269.868 464.44 269.62 465.861 267.448C467.71 264.621 469.125 258.605 469.302 254.61C469.333 253.925 468.824 253.346 468.156 253.307L449.858 252.221Z" fill="black" fill-opacity="0.5"/>
<path fill-rule="evenodd" clip-rule="evenodd" d="M503.785 256.054C505.927 253.88 509.199 253.329 511.459 255.925C515.101 260.108 511.383 275.339 501.349 275.792C497.552 275.182 500.442 259.446 503.785 256.054Z" fill="#FFC999"/>
<path fill-rule="evenodd" clip-rule="evenodd" d="M514.097 446.717C514.097 446.717 523.097 400.651 527.08 383.634C531.062 366.615 537.111 325.871 530.235 322.82C523.358 319.769 506.894 313.291 506.894 313.291C506.894 313.291 490.56 315.436 475.805 318.648C464.127 321.191 467.443 309.979 453.283 312.371C447.287 313.385 428.467 316.417 419.072 321.658C415.304 323.76 415.912 336.521 415.377 348.926C413.669 388.52 423.117 449.183 423.117 449.183C423.117 449.183 417.514 455.071 424.306 462.706C427.672 466.281 442.245 465.07 460.899 465.117C482.134 465.169 507.112 467.896 511.746 463.767C520.451 456.012 514.097 446.717 514.097 446.717Z" fill="#1443BD"/>
<path fill-rule="evenodd" clip-rule="evenodd" d="M514.097 446.717C514.097 446.717 523.097 400.651 527.08 383.634C531.062 366.615 537.111 325.871 530.235 322.82C523.358 319.769 506.894 313.291 506.894 313.291C506.894 313.291 490.56 315.436 475.805 318.648C464.127 321.191 467.443 309.979 453.283 312.371C447.287 313.385 428.467 316.417 419.072 321.658C415.304 323.76 415.912 336.521 415.377 348.926C413.669 388.52 423.117 449.183 423.117 449.183C423.117 449.183 417.514 455.071 424.306 462.706C427.672 466.281 442.245 465.07 460.899 465.117C482.134 465.169 507.112 467.896 511.746 463.767C520.451 456.012 514.097 446.717 514.097 446.717Z" fill="white" fill-opacity="0.5"/>
<path fill-rule="evenodd" clip-rule="evenodd" d="M459.292 306.421L473.528 320.395L456.445 332.623L449.042 313.989L459.292 306.421Z" fill="#1443BD"/>
<path fill-rule="evenodd" clip-rule="evenodd" d="M459.292 306.421L473.528 320.395L456.445 332.623L449.042 313.989L459.292 306.421Z" fill="white" fill-opacity="0.5"/>
<path fill-rule="evenodd" clip-rule="evenodd" d="M498.213 832.316L468.288 542.669L467.096 542.069L435.685 832.983C435.685 832.983 412.264 838.532 399.888 830.937C399.406 774.531 412.395 591.304 417.892 507.628C418.776 494.156 422.826 475.845 423.635 470.755C461.236 464.258 512.177 473.627 512.177 473.627L514.378 480.382C514.806 481.695 515.065 483.062 515.147 484.444L538.757 829.456C538.757 829.456 515.614 838.022 498.213 832.316Z" fill="#2A84C6"/>
<path fill-rule="evenodd" clip-rule="evenodd" d="M498.213 832.316L468.288 542.669L467.096 542.069L435.685 832.983C435.685 832.983 412.264 838.532 399.888 830.937C399.406 774.531 412.395 591.304 417.892 507.628C418.776 494.156 422.826 475.845 423.635 470.755C461.236 464.258 512.177 473.627 512.177 473.627L514.378 480.382C514.806 481.695 515.065 483.062 515.147 484.444L538.757 829.456C538.757 829.456 515.614 838.022 498.213 832.316Z" fill="white" fill-opacity="0.85"/>
<path d="M447.926 530.856C447.657 530.721 447.331 530.836 447.2 531.111C447.083 531.356 447.158 531.646 447.365 531.802L447.449 531.854L470.111 543.177C470.38 543.312 470.706 543.198 470.837 542.922C470.954 542.677 470.879 542.388 470.672 542.232L470.588 542.18L447.926 530.856Z" fill="#1443BD"/>
<path d="M447.926 530.856C447.657 530.721 447.331 530.836 447.2 531.111C447.083 531.356 447.158 531.646 447.365 531.802L447.449 531.854L470.111 543.177C470.38 543.312 470.706 543.198 470.837 542.922C470.954 542.677 470.879 542.388 470.672 542.232L470.588 542.18L447.926 530.856Z" fill="white" fill-opacity="0.5"/>
<path fill-rule="evenodd" clip-rule="evenodd" d="M511.973 463.646C511.973 463.646 464.093 456.411 424.292 463.539C423.965 467.147 423.623 471.589 423.623 471.589C423.623 471.589 457.68 473.987 512.745 475.375C512.592 465.584 511.973 463.646 511.973 463.646Z" fill="#2A84C6"/>
<path fill-rule="evenodd" clip-rule="evenodd" d="M511.973 463.646C511.973 463.646 464.093 456.411 424.292 463.539C423.965 467.147 423.623 471.589 423.623 471.589C423.623 471.589 457.68 473.987 512.745 475.375C512.592 465.584 511.973 463.646 511.973 463.646Z" fill="white" fill-opacity="0.85"/>
<path d="M496.462 473.988C479.021 472.537 461.119 471.979 444.4 472.832C437.373 473.191 430.744 473.796 424.578 474.67C424.281 474.712 424.074 474.992 424.115 475.296C424.156 475.6 424.43 475.812 424.727 475.77C430.86 474.901 437.458 474.298 444.454 473.941C461.119 473.091 478.977 473.648 496.374 475.095L499.136 475.333C501.839 475.574 504.366 475.824 506.691 476.075L509.298 476.367L511.154 476.591C511.332 476.613 511.466 476.63 511.558 476.642C511.855 476.681 512.127 476.466 512.165 476.162C512.204 475.858 511.994 475.58 511.696 475.541L510.625 475.407C509.875 475.316 509.019 475.216 508.062 475.109L506.021 474.887C503.117 474.58 499.915 474.275 496.462 473.988Z" fill="#1443BD"/>
<path d="M496.462 473.988C479.021 472.537 461.119 471.979 444.4 472.832C437.373 473.191 430.744 473.796 424.578 474.67C424.281 474.712 424.074 474.992 424.115 475.296C424.156 475.6 424.43 475.812 424.727 475.77C430.86 474.901 437.458 474.298 444.454 473.941C461.119 473.091 478.977 473.648 496.374 475.095L499.136 475.333C501.839 475.574 504.366 475.824 506.691 476.075L509.298 476.367L511.154 476.591C511.332 476.613 511.466 476.63 511.558 476.642C511.855 476.681 512.127 476.466 512.165 476.162C512.204 475.858 511.994 475.58 511.696 475.541L510.625 475.407C509.875 475.316 509.019 475.216 508.062 475.109L506.021 474.887C503.117 474.58 499.915 474.275 496.462 473.988Z" fill="white" fill-opacity="0.5"/>
<path d="M496.654 461.762C479.213 460.311 461.31 459.753 444.591 460.606C437.565 460.965 430.936 461.57 424.77 462.443C424.473 462.485 424.266 462.766 424.307 463.069C424.348 463.373 424.622 463.585 424.919 463.543C431.052 462.675 437.65 462.072 444.646 461.715C461.311 460.864 479.169 461.421 496.566 462.868L498.42 463.026C501.162 463.266 503.731 463.515 506.1 463.765L509.055 464.091L511.749 464.416C512.047 464.455 512.319 464.24 512.357 463.936C512.395 463.632 512.185 463.353 511.888 463.314L510.816 463.18C510.192 463.105 509.493 463.022 508.724 462.935L506.212 462.661C503.309 462.353 500.107 462.049 496.654 461.762Z" fill="#1443BD"/>
<path d="M496.654 461.762C479.213 460.311 461.31 459.753 444.591 460.606C437.565 460.965 430.936 461.57 424.77 462.443C424.473 462.485 424.266 462.766 424.307 463.069C424.348 463.373 424.622 463.585 424.919 463.543C431.052 462.675 437.65 462.072 444.646 461.715C461.311 460.864 479.169 461.421 496.566 462.868L498.42 463.026C501.162 463.266 503.731 463.515 506.1 463.765L509.055 464.091L511.749 464.416C512.047 464.455 512.319 464.24 512.357 463.936C512.395 463.632 512.185 463.353 511.888 463.314L510.816 463.18C510.192 463.105 509.493 463.022 508.724 462.935L506.212 462.661C503.309 462.353 500.107 462.049 496.654 461.762Z" fill="white" fill-opacity="0.5"/>
<path d="M464.002 462.524C463.702 462.517 463.453 462.759 463.445 463.066L463.385 465.963C463.362 467.206 463.339 468.576 463.317 470.06C463.137 482.355 463.126 495.4 463.396 507.621L463.463 510.402C463.757 521.686 464.29 531.147 465.102 538.243C465.137 538.547 465.407 538.765 465.705 538.73C466.002 538.694 466.216 538.418 466.181 538.114L466.052 536.949C465.253 529.439 464.743 519.455 464.482 507.596C464.233 496.329 464.223 484.359 464.365 472.924L464.413 469.449L464.531 463.093C464.538 462.787 464.301 462.532 464.002 462.524Z" fill="#1443BD"/>
<path d="M464.002 462.524C463.702 462.517 463.453 462.759 463.445 463.066L463.385 465.963C463.362 467.206 463.339 468.576 463.317 470.06C463.137 482.355 463.126 495.4 463.396 507.621L463.463 510.402C463.757 521.686 464.29 531.147 465.102 538.243C465.137 538.547 465.407 538.765 465.705 538.73C466.002 538.694 466.216 538.418 466.181 538.114L466.052 536.949C465.253 529.439 464.743 519.455 464.482 507.596C464.233 496.329 464.223 484.359 464.365 472.924L464.413 469.449L464.531 463.093C464.538 462.787 464.301 462.532 464.002 462.524Z" fill="white" fill-opacity="0.5"/>
<path fill-rule="evenodd" clip-rule="evenodd" d="M454.691 466.541C454.67 467.921 455.504 469.055 456.555 469.074C457.605 469.091 458.474 467.985 458.495 466.603C458.517 465.222 457.684 464.089 456.633 464.07C455.582 464.053 454.712 465.159 454.691 466.541Z" fill="white"/>
<path fill-rule="evenodd" clip-rule="evenodd" d="M473.451 319.256L486.628 336.984L506.316 313.328L499.106 304.112L473.451 319.256Z" fill="#1443BD"/>
<path fill-rule="evenodd" clip-rule="evenodd" d="M473.451 319.256L486.628 336.984L506.316 313.328L499.106 304.112L473.451 319.256Z" fill="white" fill-opacity="0.5"/>
<path d="M472.86 320.215C472.484 320.074 472.068 320.27 471.93 320.654L471.793 321.068L471.658 321.51C471.61 321.671 471.56 321.844 471.507 322.03L471.427 322.319C471.096 323.517 470.735 324.99 470.349 326.759L470.136 327.753C468.843 333.898 467.553 342.023 466.344 352.383L466.022 355.21C464.724 366.923 463.609 380.682 462.729 396.651L462.656 397.987C461.345 422.328 461.648 443.21 462.79 458.818C462.82 459.226 463.168 459.532 463.567 459.502C463.966 459.471 464.265 459.116 464.235 458.708L464.122 457.109C463.097 442.015 462.848 422.228 464.037 399.3L464.102 398.069C464.992 381.558 466.13 367.386 467.462 355.377L467.679 353.449C468.912 342.706 470.233 334.337 471.552 328.064L471.762 327.084C472.108 325.499 472.433 324.159 472.732 323.048L472.821 322.721C472.927 322.336 473.024 322.004 473.109 321.724L473.257 321.26C473.271 321.218 473.282 321.187 473.289 321.166C473.427 320.782 473.235 320.356 472.86 320.215Z" fill="#1443BD"/>
<path d="M472.86 320.215C472.484 320.074 472.068 320.27 471.93 320.654L471.793 321.068L471.658 321.51C471.61 321.671 471.56 321.844 471.507 322.03L471.427 322.319C471.096 323.517 470.735 324.99 470.349 326.759L470.136 327.753C468.843 333.898 467.553 342.023 466.344 352.383L466.022 355.21C464.724 366.923 463.609 380.682 462.729 396.651L462.656 397.987C461.345 422.328 461.648 443.21 462.79 458.818C462.82 459.226 463.168 459.532 463.567 459.502C463.966 459.471 464.265 459.116 464.235 458.708L464.122 457.109C463.097 442.015 462.848 422.228 464.037 399.3L464.102 398.069C464.992 381.558 466.13 367.386 467.462 355.377L467.679 353.449C468.912 342.706 470.233 334.337 471.552 328.064L471.762 327.084C472.108 325.499 472.433 324.159 472.732 323.048L472.821 322.721C472.927 322.336 473.024 322.004 473.109 321.724L473.257 321.26C473.271 321.218 473.282 321.187 473.289 321.166C473.427 320.782 473.235 320.356 472.86 320.215Z" fill="black" fill-opacity="0.5"/>
<path d="M415.272 346.029C414.918 345.726 414.421 345.78 414.133 346.138C414.011 346.29 413.945 346.461 413.893 346.683C413.833 346.937 413.789 347.292 413.758 347.758L413.743 348C413.69 348.979 413.681 350.402 413.717 352.225L413.737 353.095C413.856 357.717 414.222 364.34 414.811 372.292L415.031 375.191C416.501 394.137 418.955 417.657 422.25 443.21L422.603 445.914L422.468 446.268L422.352 446.588C422.111 447.261 421.871 448.005 421.647 448.8C421.103 450.732 420.739 452.651 420.642 454.457C420.479 457.473 421.071 459.929 422.641 461.587C422.92 461.881 423.378 461.888 423.665 461.604C423.953 461.319 423.96 460.85 423.682 460.556C422.444 459.249 421.946 457.182 422.088 454.538C422.179 452.857 422.522 451.043 423.039 449.21C423.21 448.602 423.392 448.025 423.575 447.49L423.821 446.796C423.905 446.569 423.971 446.402 424.012 446.301C424.063 446.179 424.08 446.046 424.063 445.915L423.501 441.574C420.241 416.124 417.824 392.755 416.393 374.009L416.199 371.418C415.682 364.333 415.347 358.352 415.211 353.97L415.167 352.253C415.133 350.567 415.137 349.232 415.179 348.292L415.19 348.082C415.206 347.779 415.227 347.529 415.251 347.336L415.276 347.158L415.287 347.151L415.362 347.072C415.619 346.758 415.578 346.291 415.272 346.029Z" fill="#1443BD"/>
<path d="M415.272 346.029C414.918 345.726 414.421 345.78 414.133 346.138C414.011 346.29 413.945 346.461 413.893 346.683C413.833 346.937 413.789 347.292 413.758 347.758L413.743 348C413.69 348.979 413.681 350.402 413.717 352.225L413.737 353.095C413.856 357.717 414.222 364.34 414.811 372.292L415.031 375.191C416.501 394.137 418.955 417.657 422.25 443.21L422.603 445.914L422.468 446.268L422.352 446.588C422.111 447.261 421.871 448.005 421.647 448.8C421.103 450.732 420.739 452.651 420.642 454.457C420.479 457.473 421.071 459.929 422.641 461.587C422.92 461.881 423.378 461.888 423.665 461.604C423.953 461.319 423.96 460.85 423.682 460.556C422.444 459.249 421.946 457.182 422.088 454.538C422.179 452.857 422.522 451.043 423.039 449.21C423.21 448.602 423.392 448.025 423.575 447.49L423.821 446.796C423.905 446.569 423.971 446.402 424.012 446.301C424.063 446.179 424.08 446.046 424.063 445.915L423.501 441.574C420.241 416.124 417.824 392.755 416.393 374.009L416.199 371.418C415.682 364.333 415.347 358.352 415.211 353.97L415.167 352.253C415.133 350.567 415.137 349.232 415.179 348.292L415.19 348.082C415.206 347.779 415.227 347.529 415.251 347.336L415.276 347.158L415.287 347.151L415.362 347.072C415.619 346.758 415.578 346.291 415.272 346.029Z" fill="black" fill-opacity="0.5"/>
<path d="M452.187 342.822L453.182 342.91C453.504 342.94 453.815 342.97 454.116 343L455.584 343.16L456.033 343.215C456.43 343.267 456.72 343.626 456.694 344.035L454.94 371.664C454.924 371.926 454.778 372.162 454.554 372.291L439.916 380.664C439.665 380.808 439.356 380.794 439.118 380.628L427.811 372.735C427.605 372.591 427.481 372.352 427.481 372.096L427.491 367.068L427.508 363.861C427.544 358.305 427.611 352.121 427.716 345.419C427.721 345.121 427.893 344.851 428.158 344.727C431.013 343.389 435.137 342.685 440.219 342.488C444.058 342.338 448.163 342.485 452.187 342.822ZM439.736 344.061C435.443 344.262 431.91 344.848 429.397 345.872L429.225 345.943L429.13 352.754C429.086 356.294 429.054 359.657 429.032 362.823L429.001 368.815L428.998 371.684L439.585 379.075L453.454 371.143L455.134 344.668L454.822 344.634C454 344.543 453.074 344.453 452.063 344.368C448.095 344.036 444.047 343.891 440.277 344.037L439.736 344.061Z" fill="#1443BD"/>
<path d="M452.187 342.822L453.182 342.91C453.504 342.94 453.815 342.97 454.116 343L455.584 343.16L456.033 343.215C456.43 343.267 456.72 343.626 456.694 344.035L454.94 371.664C454.924 371.926 454.778 372.162 454.554 372.291L439.916 380.664C439.665 380.808 439.356 380.794 439.118 380.628L427.811 372.735C427.605 372.591 427.481 372.352 427.481 372.096L427.491 367.068L427.508 363.861C427.544 358.305 427.611 352.121 427.716 345.419C427.721 345.121 427.893 344.851 428.158 344.727C431.013 343.389 435.137 342.685 440.219 342.488C444.058 342.338 448.163 342.485 452.187 342.822ZM439.736 344.061C435.443 344.262 431.91 344.848 429.397 345.872L429.225 345.943L429.13 352.754C429.086 356.294 429.054 359.657 429.032 362.823L429.001 368.815L428.998 371.684L439.585 379.075L453.454 371.143L455.134 344.668L454.822 344.634C454 344.543 453.074 344.453 452.063 344.368C448.095 344.036 444.047 343.891 440.277 344.037L439.736 344.061Z" fill="black" fill-opacity="0.5"/>
<path fill-rule="evenodd" clip-rule="evenodd" d="M472.426 332.581C472.405 333.963 473.3 335.097 474.425 335.116C475.551 335.134 476.481 334.03 476.504 332.648C476.525 331.268 475.63 330.132 474.504 330.114C473.377 330.095 472.447 331.2 472.426 332.581Z" fill="white"/>
<path fill-rule="evenodd" clip-rule="evenodd" d="M469.174 357.96C469.152 359.34 470.047 360.476 471.173 360.494C472.298 360.513 473.228 359.409 473.251 358.027C473.272 356.646 472.377 355.511 471.252 355.492C470.125 355.474 469.195 356.578 469.174 357.96Z" fill="white"/>
<path fill-rule="evenodd" clip-rule="evenodd" d="M467.111 385.443C467.09 386.825 467.985 387.959 469.11 387.978C470.236 387.996 471.165 386.892 471.188 385.51C471.209 384.13 470.314 382.994 469.189 382.976C468.062 382.957 467.132 384.063 467.111 385.443Z" fill="white"/>
<path fill-rule="evenodd" clip-rule="evenodd" d="M466.296 411.28C466.275 412.661 467.17 413.796 468.295 413.814C469.421 413.833 470.351 412.729 470.374 411.347C470.395 409.967 469.5 408.831 468.374 408.813C467.249 408.794 466.319 409.898 466.296 411.28Z" fill="white"/>
<path fill-rule="evenodd" clip-rule="evenodd" d="M466.168 445.465C466.146 446.847 467.041 447.981 468.167 448C469.292 448.018 470.222 446.914 470.245 445.532C470.266 444.152 469.371 443.016 468.246 442.998C467.119 442.979 466.189 444.083 466.168 445.465Z" fill="white"/>
<path d="M506.529 313.487C506.252 313.246 505.849 313.256 505.584 313.494L505.508 313.573L487.033 335.849L473.843 320.161C473.606 319.879 473.206 319.824 472.908 320.016L472.821 320.082C472.546 320.324 472.492 320.733 472.68 321.038L472.744 321.126L486.487 337.474C486.753 337.79 487.215 337.815 487.512 337.549L487.589 337.47L506.613 314.531C506.872 314.219 506.834 313.751 506.529 313.487Z" fill="#1443BD"/>
<path d="M506.529 313.487C506.252 313.246 505.849 313.256 505.584 313.494L505.508 313.573L487.033 335.849L473.843 320.161C473.606 319.879 473.206 319.824 472.908 320.016L472.821 320.082C472.546 320.324 472.492 320.733 472.68 321.038L472.744 321.126L486.487 337.474C486.753 337.79 487.215 337.815 487.512 337.549L487.589 337.47L506.613 314.531C506.872 314.219 506.834 313.751 506.529 313.487Z" fill="black" fill-opacity="0.5"/>
<path d="M451.379 314.49C451.257 314.1 450.85 313.885 450.469 314.009C450.119 314.123 449.913 314.482 449.975 314.841L449.998 314.939L455.755 333.43C455.897 333.887 456.413 334.08 456.805 333.848L456.887 333.792L473.196 320.944C473.513 320.694 473.572 320.229 473.328 319.905C473.106 319.611 472.71 319.534 472.402 319.71L472.312 319.77L456.822 331.974L451.379 314.49Z" fill="#1443BD"/>
<path d="M451.379 314.49C451.257 314.1 450.85 313.885 450.469 314.009C450.119 314.123 449.913 314.482 449.975 314.841L449.998 314.939L455.755 333.43C455.897 333.887 456.413 334.08 456.805 333.848L456.887 333.792L473.196 320.944C473.513 320.694 473.572 320.229 473.328 319.905C473.106 319.611 472.71 319.534 472.402 319.71L472.312 319.77L456.822 331.974L451.379 314.49Z" fill="black" fill-opacity="0.5"/>
<path d="M452.088 473.226C451.791 473.181 451.515 473.39 451.47 473.693L451.33 474.753L451.297 475.024C451.167 476.088 451.038 477.292 450.917 478.612C450.365 484.639 450.178 490.857 450.57 496.671C451.485 510.235 455.345 518.841 463.179 519.932C463.476 519.973 463.75 519.761 463.79 519.457C463.831 519.153 463.623 518.873 463.325 518.832C456.196 517.839 452.536 509.68 451.653 496.594C451.266 490.848 451.452 484.687 451.998 478.715L452.103 477.623C452.174 476.914 452.247 476.245 452.32 475.621L452.439 474.643L452.545 473.857C452.589 473.554 452.384 473.271 452.088 473.226Z" fill="#1443BD"/>
<path d="M452.088 473.226C451.791 473.181 451.515 473.39 451.47 473.693L451.33 474.753L451.297 475.024C451.167 476.088 451.038 477.292 450.917 478.612C450.365 484.639 450.178 490.857 450.57 496.671C451.485 510.235 455.345 518.841 463.179 519.932C463.476 519.973 463.75 519.761 463.79 519.457C463.831 519.153 463.623 518.873 463.325 518.832C456.196 517.839 452.536 509.68 451.653 496.594C451.266 490.848 451.452 484.687 451.998 478.715L452.103 477.623C452.174 476.914 452.247 476.245 452.32 475.621L452.439 474.643L452.545 473.857C452.589 473.554 452.384 473.271 452.088 473.226Z" fill="white" fill-opacity="0.5"/>
<path d="M508.306 258.158C508.193 257.874 507.877 257.736 507.599 257.851L507.408 257.937C507.295 257.992 507.157 258.063 506.998 258.153C506.562 258.398 506.127 258.696 505.718 259.049C504.214 260.347 503.46 262.03 503.924 264.066C504.1 264.838 504.446 265.249 505.092 265.642L505.369 265.802C505.923 266.111 506.062 266.265 506.113 266.745C506.21 267.668 505.8 268.358 505.012 268.886C504.75 269.062 504.465 269.205 504.181 269.316L503.927 269.407C503.882 269.421 503.846 269.431 503.821 269.437C503.529 269.51 503.351 269.811 503.422 270.109C503.493 270.406 503.787 270.589 504.078 270.516C504.473 270.417 505.037 270.197 505.607 269.815C506.708 269.077 507.34 268.015 507.192 266.626C507.101 265.766 506.772 265.351 506.051 264.92L505.783 264.767C505.273 264.48 505.089 264.285 504.982 263.814C504.623 262.237 505.199 260.95 506.419 259.898C506.769 259.595 507.146 259.338 507.523 259.125C507.746 258.999 507.917 258.918 508.006 258.881C508.284 258.766 508.418 258.442 508.306 258.158Z" fill="#DD936F"/>
<path d="M442.446 540.323C442.146 540.303 441.888 540.535 441.869 540.841C441.852 541.117 442.034 541.358 442.289 541.418L442.377 541.431L460.298 542.599C460.598 542.618 460.856 542.386 460.875 542.08C460.892 541.805 460.71 541.563 460.455 541.504L460.367 541.491L442.446 540.323Z" fill="#1443BD"/>
<path d="M442.446 540.323C442.146 540.303 441.888 540.535 441.869 540.841C441.852 541.117 442.034 541.358 442.289 541.418L442.377 541.431L460.298 542.599C460.598 542.618 460.856 542.386 460.875 542.08C460.892 541.805 460.71 541.563 460.455 541.504L460.367 541.491L442.446 540.323Z" fill="white" fill-opacity="0.5"/>
<path fill-rule="evenodd" clip-rule="evenodd" d="M317.517 307.669C317.517 307.669 301.914 260.113 284.249 248.571C278.99 248.769 283.921 255.853 287.581 261.649C289.453 264.613 290.688 268.357 290.688 268.357C290.688 268.357 283.475 267.586 284.859 273.846C279.079 273.56 281.171 280.174 281.171 280.174C281.171 280.174 276.728 280.183 278.157 286.326C279.138 290.55 284.704 295.535 285.979 299.978C290.899 317.113 298.979 318.061 302.224 318.587C310.436 319.915 315.478 316.718 317.517 307.669Z" fill="#FFC999"/>
<path d="M307.38 286.194L301.056 272.191L300.898 271.585C299.499 266.447 297.282 264.344 295.383 266.199C293.749 267.794 293.461 271.866 294.924 275.567C297.836 282.933 298.13 286.342 297.083 290.362L296.737 291.648C296.542 292.409 296.43 293.021 296.383 293.669C296.182 296.451 296.314 299.041 297.072 301.54C298.178 305.191 300.465 307.763 304.184 308.802C304.473 308.882 304.771 308.708 304.85 308.412C304.929 308.116 304.759 307.811 304.47 307.73C298.586 306.087 296.961 300.726 297.466 293.751C297.501 293.261 297.581 292.787 297.715 292.221L297.864 291.636C297.912 291.457 297.971 291.24 298.06 290.918L298.199 290.385C299.227 286.237 298.867 282.579 295.931 275.15C294.618 271.829 294.873 268.233 296.133 267.002C297.149 266.009 298.651 267.44 299.872 271.929L300.037 272.56L306.394 286.659C306.519 286.937 306.842 287.059 307.114 286.931C307.356 286.817 307.477 286.543 307.413 286.288L307.38 286.194Z" fill="#DD936F"/>
<path d="M284.619 273.347C284.35 273.482 284.238 273.815 284.37 274.09L284.576 274.509C284.741 274.839 284.929 275.206 285.137 275.602C285.733 276.733 286.371 277.864 287.027 278.921C287.73 280.053 288.414 281.035 289.067 281.823C290.398 283.431 291.56 284.218 292.626 283.884C295.019 283.135 295.753 281.334 295.154 278.992C294.927 278.106 294.52 277.175 293.984 276.229C293.692 275.713 293.379 275.225 293.066 274.779L292.816 274.431C292.745 274.334 292.686 274.258 292.642 274.203C292.453 273.965 292.111 273.929 291.878 274.122C291.646 274.316 291.61 274.666 291.8 274.904L292.023 275.2C292.071 275.267 292.125 275.343 292.184 275.426C292.477 275.845 292.771 276.303 293.045 276.786C293.535 277.652 293.904 278.496 294.103 279.273C294.567 281.085 294.085 282.266 292.308 282.823C291.823 282.974 290.957 282.388 289.896 281.105C289.279 280.361 288.623 279.419 287.944 278.326C287.303 277.293 286.677 276.185 286.094 275.076L285.803 274.515L285.346 273.602C285.214 273.326 284.889 273.212 284.619 273.347Z" fill="#DD936F"/>
<path d="M281.955 280.315C281.859 280.025 281.55 279.869 281.266 279.967C280.982 280.066 280.83 280.381 280.926 280.671L281.049 281.019L281.21 281.446C281.268 281.595 281.33 281.751 281.397 281.913C281.777 282.836 282.217 283.761 282.713 284.626C284.253 287.315 285.992 288.903 287.976 288.743C289.927 288.585 290.838 287.28 290.89 285.358C290.909 284.658 290.815 283.921 290.647 283.189C290.555 282.79 290.462 282.479 290.398 282.295C290.297 282.006 289.986 281.856 289.704 281.959C289.421 282.062 289.274 282.38 289.375 282.669L289.435 282.856C289.481 283.007 289.535 283.206 289.589 283.443C289.738 284.089 289.82 284.736 289.804 285.327C289.766 286.736 289.213 287.529 287.89 287.636C286.458 287.751 284.998 286.417 283.65 284.065C283.181 283.245 282.761 282.364 282.398 281.482L282.22 281.036L281.996 280.436C281.978 280.383 281.964 280.343 281.955 280.315Z" fill="#DD936F"/>
<path d="M277.873 284.873C277.582 284.946 277.404 285.247 277.475 285.545L277.558 285.862L277.711 286.388C277.739 286.482 277.769 286.577 277.801 286.675C278.071 287.516 278.396 288.357 278.778 289.145C280.194 292.07 282.032 293.593 284.314 292.698C285.931 292.064 286.565 290.878 286.32 289.414C286.201 288.697 285.881 287.957 285.424 287.214C285.224 286.889 285.011 286.585 284.797 286.309L284.596 286.059C284.559 286.015 284.528 285.978 284.503 285.951C284.301 285.724 283.958 285.708 283.736 285.914C283.514 286.121 283.498 286.472 283.7 286.698L283.824 286.845C283.86 286.889 283.901 286.941 283.946 286.999C284.137 287.245 284.328 287.517 284.505 287.806C284.892 288.435 285.158 289.05 285.25 289.601C285.408 290.551 285.051 291.22 283.926 291.661C282.344 292.281 280.948 291.124 279.751 288.653C279.394 287.916 279.088 287.123 278.833 286.329C278.773 286.143 278.719 285.967 278.671 285.802L278.53 285.28C278.466 285.016 278.227 284.842 277.97 284.858L277.873 284.873Z" fill="#DD936F"/>
<path d="M363.833 365.919C363.491 366.131 363.382 366.586 363.589 366.936L364.41 368.294L365.182 369.551C365.812 370.571 366.5 371.667 367.239 372.825C370.053 377.239 373.027 381.653 376.026 385.775C378.198 388.761 380.306 391.482 382.322 393.881C386.163 398.451 389.564 401.725 392.436 403.45C392.637 403.57 392.88 403.584 393.089 403.491L393.191 403.437L416.896 388.079C417.234 387.86 417.335 387.402 417.121 387.057C416.926 386.743 416.538 386.629 416.216 386.776L416.121 386.827L392.796 401.939L392.602 401.814C390.105 400.168 387.137 397.288 383.806 393.372L383.42 392.915C381.428 390.546 379.342 387.85 377.188 384.891C374.209 380.796 371.252 376.406 368.452 372.017L367.735 370.885C367.151 369.961 366.604 369.083 366.098 368.26L365.342 367.023L364.828 366.168C364.621 365.818 364.176 365.707 363.833 365.919Z" fill="#1443BD"/>
<path d="M363.833 365.919C363.491 366.131 363.382 366.586 363.589 366.936L364.41 368.294L365.182 369.551C365.812 370.571 366.5 371.667 367.239 372.825C370.053 377.239 373.027 381.653 376.026 385.775C378.198 388.761 380.306 391.482 382.322 393.881C386.163 398.451 389.564 401.725 392.436 403.45C392.637 403.57 392.88 403.584 393.089 403.491L393.191 403.437L416.896 388.079C417.234 387.86 417.335 387.402 417.121 387.057C416.926 386.743 416.538 386.629 416.216 386.776L416.121 386.827L392.796 401.939L392.602 401.814C390.105 400.168 387.137 397.288 383.806 393.372L383.42 392.915C381.428 390.546 379.342 387.85 377.188 384.891C374.209 380.796 371.252 376.406 368.452 372.017L367.735 370.885C367.151 369.961 366.604 369.083 366.098 368.26L365.342 367.023L364.828 366.168C364.621 365.818 364.176 365.707 363.833 365.919Z" fill="black" fill-opacity="0.5"/>
<path d="M353.781 368.562C353.641 368.291 353.313 368.186 353.047 368.329C352.811 368.456 352.704 368.735 352.782 368.986L352.819 369.079L365.556 393.865C365.696 394.136 366.024 394.241 366.29 394.098C366.526 393.971 366.633 393.692 366.555 393.441L366.518 393.348L353.781 368.562Z" fill="#DD936F"/>
<path fill-rule="evenodd" clip-rule="evenodd" d="M562.997 451.994C572.502 447.945 577.261 437.013 573.844 427.082L542.885 337.119C538.331 323.889 523.838 317.291 511.175 322.685C498.661 328.016 492.992 342.916 498.692 355.492L537.917 442.018C542.301 451.69 553.374 456.093 562.997 451.994Z" fill="#FFC999"/>
<path fill-rule="evenodd" clip-rule="evenodd" d="M561.715 391.288L542.318 334.209C536.756 321.804 516.304 316.883 504.272 322.79C492.242 328.698 487.288 343.547 493.28 355.741L520.653 411.452C520.653 411.452 551.379 404.133 561.715 391.288Z" fill="#1443BD"/>
<path fill-rule="evenodd" clip-rule="evenodd" d="M561.715 391.288L542.318 334.209C536.756 321.804 516.304 316.883 504.272 322.79C492.242 328.698 487.288 343.547 493.28 355.741L520.653 411.452C520.653 411.452 551.379 404.133 561.715 391.288Z" fill="white" fill-opacity="0.5"/>
<path d="M506.009 369.404C505.852 369.028 505.427 368.852 505.058 369.013C504.724 369.158 504.552 369.531 504.641 369.88L504.676 369.984L521.76 411.032C521.907 411.384 522.291 411.564 522.648 411.448L524.155 410.937L525.55 410.452C526.681 410.054 527.897 409.615 529.182 409.14C534.079 407.328 538.977 405.351 543.551 403.274L544.871 402.667C551.82 399.436 557.268 396.277 560.705 393.274C561.273 392.777 561.785 392.286 562.239 391.8C562.515 391.504 562.504 391.035 562.215 390.752C561.925 390.47 561.467 390.481 561.191 390.777C560.772 391.225 560.296 391.683 559.764 392.148C556.244 395.223 550.425 398.532 542.963 401.92C538.423 403.981 533.557 405.946 528.689 407.747L527.435 408.207C526.41 408.58 525.436 408.927 524.524 409.246L522.833 409.827L506.009 369.404Z" fill="#1443BD"/>
<path d="M506.009 369.404C505.852 369.028 505.427 368.852 505.058 369.013C504.724 369.158 504.552 369.531 504.641 369.88L504.676 369.984L521.76 411.032C521.907 411.384 522.291 411.564 522.648 411.448L524.155 410.937L525.55 410.452C526.681 410.054 527.897 409.615 529.182 409.14C534.079 407.328 538.977 405.351 543.551 403.274L544.871 402.667C551.82 399.436 557.268 396.277 560.705 393.274C561.273 392.777 561.785 392.286 562.239 391.8C562.515 391.504 562.504 391.035 562.215 390.752C561.925 390.47 561.467 390.481 561.191 390.777C560.772 391.225 560.296 391.683 559.764 392.148C556.244 395.223 550.425 398.532 542.963 401.92C538.423 403.981 533.557 405.946 528.689 407.747L527.435 408.207C526.41 408.58 525.436 408.927 524.524 409.246L522.833 409.827L506.009 369.404Z" fill="black" fill-opacity="0.5"/>
<path fill-rule="evenodd" clip-rule="evenodd" d="M443.748 441.225C444.306 447.004 449 451.446 454.679 451.572L554.503 453.774C565.966 454.027 575.142 444.111 574.261 432.422C573.401 420.997 563.275 412.693 552.181 414.312L453.335 428.732C447.383 429.6 443.157 435.108 443.748 441.225Z" fill="#FFC999"/>
<path fill-rule="evenodd" clip-rule="evenodd" d="M451.918 467.472L429.971 397.273C429.608 396.114 428.565 395.323 427.375 395.308L365.832 394.456C363.92 394.43 362.561 396.349 363.182 398.197L386.092 466.532C386.461 467.632 387.45 468.387 388.585 468.438L449.165 471.156C451.087 471.241 452.504 469.346 451.918 467.472Z" fill="#2A84C6"/>
<path fill-rule="evenodd" clip-rule="evenodd" d="M451.918 467.472L429.971 397.273C429.608 396.114 428.565 395.323 427.375 395.308L365.832 394.456C363.92 394.43 362.561 396.349 363.182 398.197L386.092 466.532C386.461 467.632 387.45 468.387 388.585 468.438L449.165 471.156C451.087 471.241 452.504 469.346 451.918 467.472Z" fill="black" fill-opacity="0.2"/>
<path fill-rule="evenodd" clip-rule="evenodd" d="M448.674 466.617L427.109 397.64C426.67 396.239 425.405 395.28 423.966 395.26L361.662 394.398C360.326 394.381 359.375 395.723 359.809 397.014L383.038 466.296C383.446 467.513 384.539 468.351 385.797 468.407L445.34 471.077C447.667 471.181 449.384 468.884 448.674 466.617Z" fill="#1443BD"/>
<path fill-rule="evenodd" clip-rule="evenodd" d="M448.674 466.617L427.109 397.64C426.67 396.239 425.405 395.28 423.966 395.26L361.662 394.398C360.326 394.381 359.375 395.723 359.809 397.014L383.038 466.296C383.446 467.513 384.539 468.351 385.797 468.407L445.34 471.077C447.667 471.181 449.384 468.884 448.674 466.617Z" fill="black" fill-opacity="0.5"/>
<path fill-rule="evenodd" clip-rule="evenodd" d="M418.672 401.907C417.976 402.7 418.226 404.091 419.232 405.017C420.238 405.941 421.618 406.048 422.316 405.257C423.012 404.465 422.762 403.072 421.756 402.147C420.75 401.222 419.368 401.115 418.672 401.907Z" fill="#2A84C6"/>
<path fill-rule="evenodd" clip-rule="evenodd" d="M418.672 401.907C417.976 402.7 418.226 404.091 419.232 405.017C420.238 405.941 421.618 406.048 422.316 405.257C423.012 404.465 422.762 403.072 421.756 402.147C420.75 401.222 419.368 401.115 418.672 401.907Z" fill="white" fill-opacity="0.85"/>
<path fill-rule="evenodd" clip-rule="evenodd" d="M419.5 402.736C419.137 403.147 419.267 403.869 419.789 404.35C420.313 404.83 421.028 404.885 421.391 404.474C421.752 404.063 421.622 403.341 421.1 402.86C420.578 402.38 419.861 402.325 419.5 402.736Z" fill="#2A84C6"/>
<path fill-rule="evenodd" clip-rule="evenodd" d="M419.5 402.736C419.137 403.147 419.267 403.869 419.789 404.35C420.313 404.83 421.028 404.885 421.391 404.474C421.752 404.063 421.622 403.341 421.1 402.86C420.578 402.38 419.861 402.325 419.5 402.736Z" fill="white" fill-opacity="0.85"/>
<path fill-rule="evenodd" clip-rule="evenodd" d="M424.522 454.272C420.986 453.921 419.127 452.409 419.462 449.397C415.208 448.029 415.683 444.346 415.683 444.346C415.683 444.346 407.497 444.217 406.119 440.64C405.584 439.251 406.623 437.765 408.079 437.664C425.619 436.448 438.125 426.945 438.125 426.945C438.125 426.945 431.23 416.592 431.959 411.814C432.175 410.401 433.981 409.945 434.826 411.085C442.057 420.842 456.557 428.493 456.557 428.493C456.557 428.493 473.963 445.168 455.082 452.729C455.082 452.729 440.689 458.593 430.668 457.85C425.924 457.499 424.522 454.272 424.522 454.272Z" fill="#FFC999"/>
<path d="M428.583 441.167C428.437 440.9 428.106 440.804 427.844 440.954C426.588 441.672 425.12 442.257 423.483 442.719C421.532 443.27 419.437 443.622 417.329 443.813L416.688 443.867C415.862 443.93 415.154 443.958 414.602 443.965L414.195 443.966C413.895 443.962 413.648 444.208 413.644 444.514C413.641 444.79 413.834 445.022 414.092 445.068L414.18 445.077L414.404 445.078C415.138 445.075 416.178 445.033 417.425 444.92C419.594 444.723 421.752 444.36 423.772 443.789C425.488 443.305 427.036 442.688 428.374 441.923C428.636 441.773 428.729 441.435 428.583 441.167Z" fill="#DD936F"/>
<path d="M430.233 446.679C430.103 446.403 429.778 446.287 429.508 446.42C429.347 446.5 429.183 446.578 429.019 446.654C426.936 447.615 424.7 448.231 422.454 448.569C421.067 448.778 419.955 448.846 419.264 448.841C418.955 448.836 418.709 449.082 418.705 449.388C418.701 449.664 418.895 449.896 419.153 449.942L419.24 449.951H419.435L419.837 449.942C420.553 449.916 421.5 449.835 422.612 449.668C424.951 449.316 427.283 448.673 429.465 447.666C429.639 447.587 429.811 447.504 429.981 447.42C430.251 447.287 430.364 446.955 430.233 446.679Z" fill="#DD936F"/>
<path d="M433.355 452.836C433.224 452.56 432.9 452.445 432.63 452.578C432.052 452.864 430.688 453.131 428.833 453.349C427.885 453.461 426.867 453.554 425.849 453.63L424.494 453.718C424.195 453.733 423.964 453.994 423.979 454.301C423.995 454.607 424.25 454.843 424.549 454.827L425.662 454.756L425.928 454.737C426.96 454.661 427.993 454.566 428.958 454.452L429.635 454.368C431.269 454.152 432.459 453.896 433.103 453.578C433.373 453.445 433.486 453.112 433.355 452.836Z" fill="#DD936F"/>
<path d="M552.108 413.762L455.726 427.224C455.429 427.266 455.221 427.546 455.262 427.849C455.298 428.123 455.524 428.323 455.785 428.329L455.873 428.324L552.255 414.862C552.552 414.82 552.76 414.54 552.719 414.237C552.683 413.963 552.457 413.764 552.196 413.757L552.108 413.762Z" fill="#DD936F"/>
<g filter="url(#filter3_ddddd_303_202)">
<path d="M156.199 294.474H73.2011C71.5636 294.474 70.2362 295.831 70.2362 297.505V356.285C70.2362 357.959 71.5636 359.317 73.2011 359.317H156.199C157.836 359.317 159.164 357.959 159.164 356.285V297.505C159.164 295.831 157.836 294.474 156.199 294.474Z" fill="white"/>
</g>
<path d="M142.486 351.47C143.772 351.47 144.815 349.22 144.815 346.444C144.815 343.668 143.772 341.417 142.486 341.417C141.2 341.417 140.157 343.668 140.157 346.444C140.157 349.22 141.2 351.47 142.486 351.47Z" fill="white"/>
<path d="M159.122 314.303H70.2787V323.707H159.122V314.303Z" fill="#1443BD"/>
<path d="M159.122 314.303H70.2787V323.707H159.122V314.303Z" fill="black" fill-opacity="0.5"/>
<path d="M107.358 333.451H77.5675C77.0217 333.451 76.5792 333.903 76.5792 334.462V335.689C76.5792 336.247 77.0217 336.699 77.5675 336.699H107.358C107.903 336.699 108.346 336.247 108.346 335.689V334.462C108.346 333.903 107.903 333.451 107.358 333.451Z" fill="#1443BD"/>
<path d="M107.358 333.451H77.5675C77.0217 333.451 76.5792 333.903 76.5792 334.462V335.689C76.5792 336.247 77.0217 336.699 77.5675 336.699H107.358C107.903 336.699 108.346 336.247 108.346 335.689V334.462C108.346 333.903 107.903 333.451 107.358 333.451Z" fill="white" fill-opacity="0.2"/>
<path d="M94.7502 343.196H77.5675C77.0217 343.196 76.5792 343.648 76.5792 344.206V345.433C76.5792 345.991 77.0217 346.444 77.5675 346.444H94.7502C95.296 346.444 95.7385 345.991 95.7385 345.433V344.206C95.7385 343.648 95.296 343.196 94.7502 343.196Z" fill="#1443BD"/>
<path d="M94.7502 343.196H77.5675C77.0217 343.196 76.5792 343.648 76.5792 344.206V345.433C76.5792 345.991 77.0217 346.444 77.5675 346.444H94.7502C95.296 346.444 95.7385 345.991 95.7385 345.433V344.206C95.7385 343.648 95.296 343.196 94.7502 343.196Z" fill="white" fill-opacity="0.2"/>
<path d="M85.1705 301.008H77.5675C77.0217 301.008 76.5792 301.46 76.5792 302.019V306.455C76.5792 307.013 77.0217 307.466 77.5675 307.466H85.1705C85.7164 307.466 86.1588 307.013 86.1588 306.455V302.019C86.1588 301.46 85.7164 301.008 85.1705 301.008Z" fill="#1443BD"/>
<path d="M140.156 346.444C140.154 344.495 141.01 342.649 142.486 341.417C139.898 339.248 136.108 339.504 133.821 342.002C131.534 344.5 131.534 348.383 133.821 350.881C136.108 353.379 139.898 353.635 142.486 351.466C141.011 350.235 140.156 348.391 140.156 346.444Z" fill="#F56D7E"/>
<path d="M146.51 339.948C145.042 339.946 143.62 340.465 142.486 341.417C143.959 342.651 144.812 344.495 144.812 346.442C144.812 348.388 143.959 350.232 142.486 351.466C144.65 353.282 147.721 353.435 150.048 351.844C152.374 350.253 153.409 347.292 152.594 344.554C151.78 341.815 149.309 339.945 146.51 339.948Z" fill="#B7EE81"/>
<path d="M146.51 339.948C145.042 339.946 143.62 340.465 142.486 341.417C143.959 342.651 144.812 344.495 144.812 346.442C144.812 348.388 143.959 350.232 142.486 351.466C144.65 353.282 147.721 353.435 150.048 351.844C152.374 350.253 153.409 347.292 152.594 344.554C151.78 341.815 149.309 339.945 146.51 339.948Z" fill="white" fill-opacity="0.2"/>
<path fill-rule="evenodd" clip-rule="evenodd" d="M355.631 208.305C364.801 208.305 372.235 215.906 372.235 225.282V225.325C372.235 234.701 364.801 242.302 355.631 242.302H331.146C330.232 242.302 329.334 242.226 328.46 242.081L323.716 246.766C323.587 246.893 323.415 246.965 323.236 246.965C322.854 246.965 322.544 246.648 322.544 246.257L322.544 239.848C317.747 236.872 314.543 231.481 314.543 225.325V225.282C314.543 215.906 321.977 208.305 331.146 208.305H355.631Z" fill="#2A84C6"/>
<path fill-rule="evenodd" clip-rule="evenodd" d="M355.631 208.305C364.801 208.305 372.235 215.906 372.235 225.282V225.325C372.235 234.701 364.801 242.302 355.631 242.302H331.146C330.232 242.302 329.334 242.226 328.46 242.081L323.716 246.766C323.587 246.893 323.415 246.965 323.236 246.965C322.854 246.965 322.544 246.648 322.544 246.257L322.544 239.848C317.747 236.872 314.543 231.481 314.543 225.325V225.282C314.543 215.906 321.977 208.305 331.146 208.305H355.631Z" fill="white" fill-opacity="0.5"/>
<g filter="url(#filter4_ddddd_303_202)">
<path d="M351.605 167.632H386.565C399.665 167.632 410.284 178.49 410.284 191.884C410.284 205.279 399.665 216.137 386.565 216.137H351.605C338.505 216.137 327.885 205.279 327.885 191.884C327.885 178.49 338.505 167.632 351.605 167.632Z" fill="white"/>
<path fill-rule="evenodd" clip-rule="evenodd" d="M398.857 209.082V221.779C398.857 222.337 398.415 222.789 397.869 222.789C397.613 222.789 397.367 222.688 397.183 222.506L388.058 213.504L398.857 209.082Z" fill="white"/>
</g>
<path d="M384.959 194.915C382.844 194.915 381.13 193.162 381.13 191C381.13 188.837 382.844 187.084 384.959 187.084C387.074 187.084 388.789 188.837 388.789 191C388.789 193.162 387.074 194.915 384.959 194.915Z" fill="#1443BD"/>
<path d="M384.959 194.915C382.844 194.915 381.13 193.162 381.13 191C381.13 188.837 382.844 187.084 384.959 187.084C387.074 187.084 388.789 188.837 388.789 191C388.789 193.162 387.074 194.915 384.959 194.915Z" fill="black" fill-opacity="0.5"/>
<path d="M369.27 194.915C367.155 194.915 365.441 193.162 365.441 191C365.441 188.837 367.155 187.084 369.27 187.084C371.385 187.084 373.1 188.837 373.1 191C373.1 193.162 371.385 194.915 369.27 194.915Z" fill="#1443BD"/>
<path d="M369.27 194.915C367.155 194.915 365.441 193.162 365.441 191C365.441 188.837 367.155 187.084 369.27 187.084C371.385 187.084 373.1 188.837 373.1 191C373.1 193.162 371.385 194.915 369.27 194.915Z" fill="black" fill-opacity="0.5"/>
<path d="M353.21 194.915C351.095 194.915 349.381 193.162 349.381 191C349.381 188.837 351.095 187.084 353.21 187.084C355.325 187.084 357.04 188.837 357.04 191C357.04 193.162 355.325 194.915 353.21 194.915Z" fill="#1443BD"/>
<path d="M353.21 194.915C351.095 194.915 349.381 193.162 349.381 191C349.381 188.837 351.095 187.084 353.21 187.084C355.325 187.084 357.04 188.837 357.04 191C357.04 193.162 355.325 194.915 353.21 194.915Z" fill="black" fill-opacity="0.5"/>
<path fill-rule="evenodd" clip-rule="evenodd" d="M242.016 409.468H228.329V361.521C228.329 357.705 231.377 354.611 235.137 354.611H235.208C238.968 354.611 242.016 357.705 242.016 361.521V409.468Z" fill="#B7EE81"/>
<path fill-rule="evenodd" clip-rule="evenodd" d="M242.016 409.468H228.329V361.521C228.329 357.705 231.377 354.611 235.137 354.611H235.208C238.968 354.611 242.016 357.705 242.016 361.521V409.468Z" fill="white" fill-opacity="0.2"/>
<path fill-rule="evenodd" clip-rule="evenodd" d="M248.821 421.204H235.095V396.167C235.095 392.451 238.075 389.439 241.752 389.439H242.164C245.841 389.439 248.821 392.451 248.821 396.167V421.204Z" fill="#B7EE81"/>
<path fill-rule="evenodd" clip-rule="evenodd" d="M248.821 421.204H235.095V396.167C235.095 392.451 238.075 389.439 241.752 389.439H242.164C245.841 389.439 248.821 392.451 248.821 396.167V421.204Z" fill="black" fill-opacity="0.35"/>
<path fill-rule="evenodd" clip-rule="evenodd" d="M230.337 409.442H216.519V382.221C216.519 378.485 219.507 375.456 223.194 375.456H223.662C227.349 375.456 230.337 378.485 230.337 382.221V409.442Z" fill="#B7EE81"/>
<path fill-rule="evenodd" clip-rule="evenodd" d="M230.337 409.442H216.519V382.221C216.519 378.485 219.507 375.456 223.194 375.456H223.662C227.349 375.456 230.337 378.485 230.337 382.221V409.442Z" fill="white" fill-opacity="0.2"/>
<path fill-rule="evenodd" clip-rule="evenodd" d="M246 449.362H217C215.579 449.362 213.573 447.438 213.573 446L211 410.603C211 409.166 212.152 408 213.573 408H249.518C250.939 408 252.091 409.166 252.091 410.603L248.5 446C248.5 447.438 247.421 449.362 246 449.362Z" fill="#1443BD"/>
<path fill-rule="evenodd" clip-rule="evenodd" d="M246 449.362H217C215.579 449.362 213.573 447.438 213.573 446L211 410.603C211 409.166 212.152 408 213.573 408H249.518C250.939 408 252.091 409.166 252.091 410.603L248.5 446C248.5 447.438 247.421 449.362 246 449.362Z" fill="black" fill-opacity="0.2"/>
<path fill-rule="evenodd" clip-rule="evenodd" d="M244.165 460.121L257.211 624.486H268.412L255.367 460.121H244.165Z" fill="#F2F2F2"/>
<path fill-rule="evenodd" clip-rule="evenodd" d="M208.492 460.121L195.446 624.486H206.648L219.693 460.121H208.492Z" fill="#F2F2F2"/>
<path fill-rule="evenodd" clip-rule="evenodd" d="M199.209 470.79C192.518 470.79 187.095 466.006 187.095 460.106C187.095 454.206 192.518 449.421 199.209 449.421H265.677C272.367 449.421 277.792 454.206 277.792 460.106C277.792 466.006 272.367 470.79 265.677 470.79H199.209Z" fill="#2A84C6"/>
<path fill-rule="evenodd" clip-rule="evenodd" d="M199.209 470.79C192.518 470.79 187.095 466.006 187.095 460.106C187.095 454.206 192.518 449.421 199.209 449.421H265.677C272.367 449.421 277.792 454.206 277.792 460.106C277.792 466.006 272.367 470.79 265.677 470.79H199.209Z" fill="white" fill-opacity="0.65"/>
<g opacity="0.8">
<path fill-rule="evenodd" clip-rule="evenodd" d="M558.67 133.367L605.234 168.581C606.135 167.667 607.436 167.143 608.833 167.261C611.298 167.468 613.132 169.592 612.929 172.005C612.726 174.417 610.563 176.205 608.098 175.998C606.44 175.858 605.067 174.852 604.408 173.473L547.801 192.247C547.962 192.763 548.027 193.317 547.98 193.886C547.777 196.299 545.614 198.087 543.148 197.879C540.683 197.672 538.849 195.548 539.052 193.135C539.248 190.81 541.263 189.066 543.616 189.128L553.648 135.282C551.618 134.724 550.208 132.818 550.387 130.687C550.59 128.274 552.753 126.486 555.218 126.694C557.683 126.901 559.517 129.025 559.314 131.438C559.255 132.146 559.026 132.801 558.67 133.367ZM604.002 171.254C603.987 171.427 603.983 171.598 603.989 171.767L570.681 175.843C570.231 174.065 568.666 172.681 566.7 172.515C566.272 172.479 565.853 172.504 565.452 172.581L556.347 135.201C557.035 134.964 557.65 134.566 558.14 134.05L604.69 169.255C604.309 169.836 604.064 170.516 604.002 171.254ZM564.61 172.829L555.495 135.404C555.176 135.448 554.848 135.459 554.513 135.433L544.489 189.234C545.307 189.414 546.034 189.81 546.611 190.352L562.389 178.948C561.991 178.225 561.795 177.386 561.869 176.508C562.011 174.819 563.115 173.435 564.61 172.829ZM562.88 179.664L547.184 191.008C547.286 191.15 547.379 191.298 547.463 191.451L604.115 172.662C604.112 172.648 604.108 172.634 604.105 172.62L570.807 176.695C570.816 176.881 570.812 177.069 570.796 177.259C570.593 179.672 568.43 181.46 565.965 181.252C564.712 181.147 563.622 180.546 562.88 179.664Z" fill="#B7EE81"/>
<path fill-rule="evenodd" clip-rule="evenodd" d="M558.67 133.367L605.234 168.581C606.135 167.667 607.436 167.143 608.833 167.261C611.298 167.468 613.132 169.592 612.929 172.005C612.726 174.417 610.563 176.205 608.098 175.998C606.44 175.858 605.067 174.852 604.408 173.473L547.801 192.247C547.962 192.763 548.027 193.317 547.98 193.886C547.777 196.299 545.614 198.087 543.148 197.879C540.683 197.672 538.849 195.548 539.052 193.135C539.248 190.81 541.263 189.066 543.616 189.128L553.648 135.282C551.618 134.724 550.208 132.818 550.387 130.687C550.59 128.274 552.753 126.486 555.218 126.694C557.683 126.901 559.517 129.025 559.314 131.438C559.255 132.146 559.026 132.801 558.67 133.367ZM604.002 171.254C603.987 171.427 603.983 171.598 603.989 171.767L570.681 175.843C570.231 174.065 568.666 172.681 566.7 172.515C566.272 172.479 565.853 172.504 565.452 172.581L556.347 135.201C557.035 134.964 557.65 134.566 558.14 134.05L604.69 169.255C604.309 169.836 604.064 170.516 604.002 171.254ZM564.61 172.829L555.495 135.404C555.176 135.448 554.848 135.459 554.513 135.433L544.489 189.234C545.307 189.414 546.034 189.81 546.611 190.352L562.389 178.948C561.991 178.225 561.795 177.386 561.869 176.508C562.011 174.819 563.115 173.435 564.61 172.829ZM562.88 179.664L547.184 191.008C547.286 191.15 547.379 191.298 547.463 191.451L604.115 172.662C604.112 172.648 604.108 172.634 604.105 172.62L570.807 176.695C570.816 176.881 570.812 177.069 570.796 177.259C570.593 179.672 568.43 181.46 565.965 181.252C564.712 181.147 563.622 180.546 562.88 179.664Z" fill="white" fill-opacity="0.65"/>
</g>
<g opacity="0.8">
<path fill-rule="evenodd" clip-rule="evenodd" d="M365.786 24.8694L361.977 58.0056C362.689 58.1835 363.324 58.6713 363.672 59.3929C364.286 60.6661 363.773 62.1852 362.527 62.7858C361.281 63.3863 359.773 62.8411 359.159 61.5678C358.747 60.7115 358.843 59.7439 359.33 59.0194L333.658 36.6157C333.451 36.8445 333.197 37.0375 332.903 37.1793C331.657 37.7799 330.149 37.2346 329.536 35.9614C328.922 34.6881 329.435 33.1691 330.681 32.5685C331.882 31.9898 333.325 32.4751 333.978 33.6504L363.386 22.9544C363.071 21.7931 363.6 20.5459 364.7 20.0154C365.946 19.4148 367.454 19.9601 368.068 21.2333C368.681 22.5065 368.169 24.0255 366.923 24.6261C366.557 24.8025 366.168 24.8801 365.786 24.8694ZM360.305 58.175C360.215 58.218 360.13 58.2658 360.048 58.3178L348.372 43.1115C349.116 42.374 349.344 41.2021 348.854 40.1865C348.747 39.9654 348.614 39.7662 348.46 39.5912L364.21 24.2589C364.526 24.5286 364.9 24.7155 365.296 24.8066L361.488 57.9335C361.091 57.9148 360.686 57.9913 360.305 58.175ZM348.093 39.2494L363.862 23.8984C363.748 23.7544 363.647 23.5958 363.563 23.4239L334.179 34.1111C334.328 34.5657 334.344 35.0383 334.245 35.4798L344.437 39.9326C344.677 39.5271 345.033 39.1871 345.487 38.9686C346.359 38.548 347.36 38.6894 348.093 39.2494ZM344.227 40.3819L334.088 35.9524C334.048 36.0435 334.002 36.1322 333.951 36.2179L359.645 58.6397C359.65 58.6339 359.656 58.6282 359.662 58.6224L347.99 43.4207C347.901 43.4789 347.807 43.532 347.709 43.5794C346.463 44.18 344.955 43.6347 344.342 42.3615C344.03 41.7141 344.009 41.0033 344.227 40.3819Z" fill="#B7EE81"/>
<path fill-rule="evenodd" clip-rule="evenodd" d="M365.786 24.8694L361.977 58.0056C362.689 58.1835 363.324 58.6713 363.672 59.3929C364.286 60.6661 363.773 62.1852 362.527 62.7858C361.281 63.3863 359.773 62.8411 359.159 61.5678C358.747 60.7115 358.843 59.7439 359.33 59.0194L333.658 36.6157C333.451 36.8445 333.197 37.0375 332.903 37.1793C331.657 37.7799 330.149 37.2346 329.536 35.9614C328.922 34.6881 329.435 33.1691 330.681 32.5685C331.882 31.9898 333.325 32.4751 333.978 33.6504L363.386 22.9544C363.071 21.7931 363.6 20.5459 364.7 20.0154C365.946 19.4148 367.454 19.9601 368.068 21.2333C368.681 22.5065 368.169 24.0255 366.923 24.6261C366.557 24.8025 366.168 24.8801 365.786 24.8694ZM360.305 58.175C360.215 58.218 360.13 58.2658 360.048 58.3178L348.372 43.1115C349.116 42.374 349.344 41.2021 348.854 40.1865C348.747 39.9654 348.614 39.7662 348.46 39.5912L364.21 24.2589C364.526 24.5286 364.9 24.7155 365.296 24.8066L361.488 57.9335C361.091 57.9148 360.686 57.9913 360.305 58.175ZM348.093 39.2494L363.862 23.8984C363.748 23.7544 363.647 23.5958 363.563 23.4239L334.179 34.1111C334.328 34.5657 334.344 35.0383 334.245 35.4798L344.437 39.9326C344.677 39.5271 345.033 39.1871 345.487 38.9686C346.359 38.548 347.36 38.6894 348.093 39.2494ZM344.227 40.3819L334.088 35.9524C334.048 36.0435 334.002 36.1322 333.951 36.2179L359.645 58.6397C359.65 58.6339 359.656 58.6282 359.662 58.6224L347.99 43.4207C347.901 43.4789 347.807 43.532 347.709 43.5794C346.463 44.18 344.955 43.6347 344.342 42.3615C344.03 41.7141 344.009 41.0033 344.227 40.3819Z" fill="white" fill-opacity="0.65"/>
</g>
<path d="M162 212C162 218.075 157.075 223 151 223C144.925 223 140 218.075 140 212C140 205.925 144.925 201 151 201C157.075 201 162 205.925 162 212Z" fill="white"/>
<mask id="mask0_303_202" style="mask-type:alpha" maskUnits="userSpaceOnUse" x="140" y="201" width="22" height="22">
<circle cx="151" cy="212" r="11" fill="#C4C4C4"/>
</mask>
<g mask="url(#mask0_303_202)">
<circle cx="151" cy="212" r="3" fill="#1443BD"/>
<circle cx="151" cy="212" r="3" fill="white" fill-opacity="0.5"/>
<circle cx="151" cy="222.5" r="7.5" fill="#1443BD"/>
<circle cx="151" cy="222.5" r="7.5" fill="white" fill-opacity="0.5"/>
</g>
<defs>
<filter id="filter0_i_303_202" x="192" y="200" width="30.4615" height="36" filterUnits="userSpaceOnUse" color-interpolation-filters="sRGB">
<feFlood flood-opacity="0" result="BackgroundImageFix"/>
<feBlend mode="normal" in="SourceGraphic" in2="BackgroundImageFix" result="shape"/>
<feColorMatrix in="SourceAlpha" type="matrix" values="0 0 0 0 0 0 0 0 0 0 0 0 0 0 0 0 0 0 127 0" result="hardAlpha"/>
<feOffset dy="-1"/>
<feComposite in2="hardAlpha" operator="arithmetic" k2="-1" k3="1"/>
<feColorMatrix type="matrix" values="0 0 0 0 0 0 0 0 0 0 0 0 0 0 0 0 0 0 0.12 0"/>
<feBlend mode="normal" in2="shape" result="effect1_innerShadow_303_202"/>
</filter>
<filter id="filter1_i_303_202" x="236" y="200" width="30.4615" height="36" filterUnits="userSpaceOnUse" color-interpolation-filters="sRGB">
<feFlood flood-opacity="0" result="BackgroundImageFix"/>
<feBlend mode="normal" in="SourceGraphic" in2="BackgroundImageFix" result="shape"/>
<feColorMatrix in="SourceAlpha" type="matrix" values="0 0 0 0 0 0 0 0 0 0 0 0 0 0 0 0 0 0 127 0" result="hardAlpha"/>
<feOffset dy="-1"/>
<feComposite in2="hardAlpha" operator="arithmetic" k2="-1" k3="1"/>
<feColorMatrix type="matrix" values="0 0 0 0 0 0 0 0 0 0 0 0 0 0 0 0 0 0 0.12 0"/>
<feBlend mode="normal" in2="shape" result="effect1_innerShadow_303_202"/>
</filter>
<filter id="filter2_i_303_202" x="280" y="200" width="30.4615" height="36" filterUnits="userSpaceOnUse" color-interpolation-filters="sRGB">
<feFlood flood-opacity="0" result="BackgroundImageFix"/>
<feBlend mode="normal" in="SourceGraphic" in2="BackgroundImageFix" result="shape"/>
<feColorMatrix in="SourceAlpha" type="matrix" values="0 0 0 0 0 0 0 0 0 0 0 0 0 0 0 0 0 0 127 0" result="hardAlpha"/>
<feOffset dy="-1"/>
<feComposite in2="hardAlpha" operator="arithmetic" k2="-1" k3="1"/>
<feColorMatrix type="matrix" values="0 0 0 0 0 0 0 0 0 0 0 0 0 0 0 0 0 0 0.12 0"/>
<feBlend mode="normal" in2="shape" result="effect1_innerShadow_303_202"/>
</filter>
<filter id="filter3_ddddd_303_202" x="0.236206" y="264.474" width="228.928" height="204.843" filterUnits="userSpaceOnUse" color-interpolation-filters="sRGB">
<feFlood flood-opacity="0" result="BackgroundImageFix"/>
<feColorMatrix in="SourceAlpha" type="matrix" values="0 0 0 0 0 0 0 0 0 0 0 0 0 0 0 0 0 0 127 0" result="hardAlpha"/>
<feOffset dy="6"/>
<feGaussianBlur stdDeviation="4"/>
<feColorMatrix type="matrix" values="0 0 0 0 0.705882 0 0 0 0 0.831373 0 0 0 0 0.921569 0 0 0 0.12 0"/>
<feBlend mode="normal" in2="BackgroundImageFix" result="effect1_dropShadow_303_202"/>
<feColorMatrix in="SourceAlpha" type="matrix" values="0 0 0 0 0 0 0 0 0 0 0 0 0 0 0 0 0 0 127 0" result="hardAlpha"/>
<feOffset dy="8"/>
<feGaussianBlur stdDeviation="12"/>
<feColorMatrix type="matrix" values="0 0 0 0 0.705882 0 0 0 0 0.831373 0 0 0 0 0.921569 0 0 0 0.08 0"/>
<feBlend mode="normal" in2="effect1_dropShadow_303_202" result="effect2_dropShadow_303_202"/>
<feColorMatrix in="SourceAlpha" type="matrix" values="0 0 0 0 0 0 0 0 0 0 0 0 0 0 0 0 0 0 127 0" result="hardAlpha"/>
<feOffset dy="16"/>
<feGaussianBlur stdDeviation="18"/>
<feColorMatrix type="matrix" values="0 0 0 0 0.705882 0 0 0 0 0.831373 0 0 0 0 0.921569 0 0 0 0.04 0"/>
<feBlend mode="normal" in2="effect2_dropShadow_303_202" result="effect3_dropShadow_303_202"/>
<feColorMatrix in="SourceAlpha" type="matrix" values="0 0 0 0 0 0 0 0 0 0 0 0 0 0 0 0 0 0 127 0" result="hardAlpha"/>
<feOffset dy="40"/>
<feGaussianBlur stdDeviation="35"/>
<feColorMatrix type="matrix" values="0 0 0 0 0.705882 0 0 0 0 0.831373 0 0 0 0 0.921569 0 0 0 0.04 0"/>
<feBlend mode="normal" in2="effect3_dropShadow_303_202" result="effect4_dropShadow_303_202"/>
<feColorMatrix in="SourceAlpha" type="matrix" values="0 0 0 0 0 0 0 0 0 0 0 0 0 0 0 0 0 0 127 0" result="hardAlpha"/>
<feOffset dy="2"/>
<feGaussianBlur stdDeviation="2"/>
<feColorMatrix type="matrix" values="0 0 0 0 0.87451 0 0 0 0 0.929412 0 0 0 0 0.964706 0 0 0 0.4 0"/>
<feBlend mode="normal" in2="effect4_dropShadow_303_202" result="effect5_dropShadow_303_202"/>
<feBlend mode="normal" in="SourceGraphic" in2="effect5_dropShadow_303_202" result="shape"/>
</filter>
<filter id="filter4_ddddd_303_202" x="257.885" y="137.632" width="222.399" height="195.158" filterUnits="userSpaceOnUse" color-interpolation-filters="sRGB">
<feFlood flood-opacity="0" result="BackgroundImageFix"/>
<feColorMatrix in="SourceAlpha" type="matrix" values="0 0 0 0 0 0 0 0 0 0 0 0 0 0 0 0 0 0 127 0" result="hardAlpha"/>
<feOffset dy="6"/>
<feGaussianBlur stdDeviation="4"/>
<feColorMatrix type="matrix" values="0 0 0 0 0.705882 0 0 0 0 0.831373 0 0 0 0 0.921569 0 0 0 0.12 0"/>
<feBlend mode="normal" in2="BackgroundImageFix" result="effect1_dropShadow_303_202"/>
<feColorMatrix in="SourceAlpha" type="matrix" values="0 0 0 0 0 0 0 0 0 0 0 0 0 0 0 0 0 0 127 0" result="hardAlpha"/>
<feOffset dy="8"/>
<feGaussianBlur stdDeviation="12"/>
<feColorMatrix type="matrix" values="0 0 0 0 0.705882 0 0 0 0 0.831373 0 0 0 0 0.921569 0 0 0 0.08 0"/>
<feBlend mode="normal" in2="effect1_dropShadow_303_202" result="effect2_dropShadow_303_202"/>
<feColorMatrix in="SourceAlpha" type="matrix" values="0 0 0 0 0 0 0 0 0 0 0 0 0 0 0 0 0 0 127 0" result="hardAlpha"/>
<feOffset dy="16"/>
<feGaussianBlur stdDeviation="18"/>
<feColorMatrix type="matrix" values="0 0 0 0 0.705882 0 0 0 0 0.831373 0 0 0 0 0.921569 0 0 0 0.04 0"/>
<feBlend mode="normal" in2="effect2_dropShadow_303_202" result="effect3_dropShadow_303_202"/>
<feColorMatrix in="SourceAlpha" type="matrix" values="0 0 0 0 0 0 0 0 0 0 0 0 0 0 0 0 0 0 127 0" result="hardAlpha"/>
<feOffset dy="40"/>
<feGaussianBlur stdDeviation="35"/>
<feColorMatrix type="matrix" values="0 0 0 0 0.705882 0 0 0 0 0.831373 0 0 0 0 0.921569 0 0 0 0.04 0"/>
<feBlend mode="normal" in2="effect3_dropShadow_303_202" result="effect4_dropShadow_303_202"/>
<feColorMatrix in="SourceAlpha" type="matrix" values="0 0 0 0 0 0 0 0 0 0 0 0 0 0 0 0 0 0 127 0" result="hardAlpha"/>
<feOffset dy="2"/>
<feGaussianBlur stdDeviation="2"/>
<feColorMatrix type="matrix" values="0 0 0 0 0.87451 0 0 0 0 0.929412 0 0 0 0 0.964706 0 0 0 0.4 0"/>
<feBlend mode="normal" in2="effect4_dropShadow_303_202" result="effect5_dropShadow_303_202"/>
<feBlend mode="normal" in="SourceGraphic" in2="effect5_dropShadow_303_202" result="shape"/>
</filter>
</defs>
</svg>
