<svg width="124" height="29" viewBox="0 0 124 29" fill="none" xmlns="http://www.w3.org/2000/svg">
<path d="M8.4646 28.5205H13.1553V20.3205H18.5732C23.882 20.3205 27.5 16.9856 27.5 12.0347V12.0003C27.5 7.03221 23.882 3.71442 18.5732 3.71442H8.4646V28.5205ZM17.4096 7.34164C20.7731 7.34164 22.7366 9.04351 22.7366 12.0175V12.0519C22.7366 15.0258 20.7731 16.7449 17.4096 16.7449H13.1553V7.34164H17.4096Z" fill="#1443BD"/>
<path d="M8.4646 28.5205H13.1553V20.3205H18.5732C23.882 20.3205 27.5 16.9856 27.5 12.0347V12.0003C27.5 7.03221 23.882 3.71442 18.5732 3.71442H8.4646V28.5205ZM17.4096 7.34164C20.7731 7.34164 22.7366 9.04351 22.7366 12.0175V12.0519C22.7366 15.0258 20.7731 16.7449 17.4096 16.7449H13.1553V7.34164H17.4096Z" fill="black" fill-opacity="0.5"/>
<path d="M70.9938 22.5205H75.5209V11.3638C75.5209 9.14617 77.0481 7.53026 79.2298 7.53026C81.3387 7.53026 82.6478 8.80236 82.6478 10.848V22.5205H87.0475V11.2606C87.0475 9.06022 88.5384 7.53026 90.7201 7.53026C92.9382 7.53026 94.1744 8.81955 94.1744 11.0715V22.5205H98.7015V10.0057C98.7015 6.3613 96.2107 3.92023 92.4109 3.92023C89.6292 3.92023 87.3384 5.32986 86.4112 7.59902H86.3021C85.5931 5.2611 83.6477 3.92023 80.9569 3.92023C78.4116 3.92023 76.4299 5.22671 75.6117 7.22083H75.5209V4.29842H70.9938V22.5205Z" fill="#1443BD"/>
<path d="M70.9938 22.5205H75.5209V11.3638C75.5209 9.14617 77.0481 7.53026 79.2298 7.53026C81.3387 7.53026 82.6478 8.80236 82.6478 10.848V22.5205H87.0475V11.2606C87.0475 9.06022 88.5384 7.53026 90.7201 7.53026C92.9382 7.53026 94.1744 8.81955 94.1744 11.0715V22.5205H98.7015V10.0057C98.7015 6.3613 96.2107 3.92023 92.4109 3.92023C89.6292 3.92023 87.3384 5.32986 86.4112 7.59902H86.3021C85.5931 5.2611 83.6477 3.92023 80.9569 3.92023C78.4116 3.92023 76.4299 5.22671 75.6117 7.22083H75.5209V4.29842H70.9938V22.5205Z" fill="black" fill-opacity="0.5"/>
<path d="M54.3219 28.9876C58.3398 28.9876 60.5943 27.5607 62.0669 23.5553L68.9938 4.71442H64.2304L59.7034 19.2921H59.5761L55.0673 4.71442H50.1221L57.049 22.9537L56.7763 23.6928C56.1945 25.2228 55.2309 25.687 53.5037 25.687C52.8674 25.687 52.3401 25.601 51.9947 25.5322V28.7985C52.5401 28.8844 53.4492 28.9876 54.3219 28.9876Z" fill="#1443BD"/>
<path d="M54.3219 28.9876C58.3398 28.9876 60.5943 27.5607 62.0669 23.5553L68.9938 4.71442H64.2304L59.7034 19.2921H59.5761L55.0673 4.71442H50.1221L57.049 22.9537L56.7763 23.6928C56.1945 25.2228 55.2309 25.687 53.5037 25.687C52.8674 25.687 52.3401 25.601 51.9947 25.5322V28.7985C52.5401 28.8844 53.4492 28.9876 54.3219 28.9876Z" fill="black" fill-opacity="0.5"/>
<path d="M2.63623 9.6825C4.10888 9.6825 5.25428 8.5823 5.25428 7.18986C5.25428 5.79742 4.10888 4.71442 2.63623 4.71442C1.16358 4.71442 0 5.79742 0 7.18986C0 8.5823 1.16358 9.6825 2.63623 9.6825ZM2.63623 22.3004C4.10888 22.3004 5.25428 21.2002 5.25428 19.8078C5.25428 18.4325 4.10888 17.3323 2.63623 17.3323C1.16358 17.3323 0 18.4325 0 19.8078C0 21.2002 1.16358 22.3004 2.63623 22.3004Z" fill="#1443BD"/>
<path d="M2.63623 9.6825C4.10888 9.6825 5.25428 8.5823 5.25428 7.18986C5.25428 5.79742 4.10888 4.71442 2.63623 4.71442C1.16358 4.71442 0 5.79742 0 7.18986C0 8.5823 1.16358 9.6825 2.63623 9.6825ZM2.63623 22.3004C4.10888 22.3004 5.25428 21.2002 5.25428 19.8078C5.25428 18.4325 4.10888 17.3323 2.63623 17.3323C1.16358 17.3323 0 18.4325 0 19.8078C0 21.2002 1.16358 22.3004 2.63623 22.3004Z" fill="black" fill-opacity="0.5"/>
<path d="M45.9641 19.5656C49.5252 16.0045 49.5372 12.0055 47.98 9.59985L47.8849 9.42758L44.8895 12.423L44.9489 12.5338C45.5034 13.7054 45.2643 15.549 43.6702 17.1431C41.5876 19.2257 38.9391 19.1999 36.6268 16.9904L46.1658 7.45137L45.1934 6.47892C41.3036 2.58913 36.2975 2.41689 32.4022 6.31221C28.5069 10.2075 28.6742 15.3886 32.7342 19.4486L32.7464 19.4608C36.8428 23.5572 41.8759 23.6537 45.9641 19.5656ZM34.8111 8.64398C36.5081 6.94701 38.7633 6.73392 41.0369 8.54465L34.6475 14.934C32.9233 12.6955 33.1141 10.341 34.8111 8.64398Z" fill="#1443BD"/>
<path d="M45.9641 19.5656C49.5252 16.0045 49.5372 12.0055 47.98 9.59985L47.8849 9.42758L44.8895 12.423L44.9489 12.5338C45.5034 13.7054 45.2643 15.549 43.6702 17.1431C41.5876 19.2257 38.9391 19.1999 36.6268 16.9904L46.1658 7.45137L45.1934 6.47892C41.3036 2.58913 36.2975 2.41689 32.4022 6.31221C28.5069 10.2075 28.6742 15.3886 32.7342 19.4486L32.7464 19.4608C36.8428 23.5572 41.8759 23.6537 45.9641 19.5656ZM34.8111 8.64398C36.5081 6.94701 38.7633 6.73392 41.0369 8.54465L34.6475 14.934C32.9233 12.6955 33.1141 10.341 34.8111 8.64398Z" fill="black" fill-opacity="0.5"/>
<path d="M116.964 19.5656C120.525 16.0045 120.537 12.0055 118.98 9.59986L118.885 9.42758L115.889 12.423L115.949 12.5338C116.503 13.7054 116.264 15.549 114.67 17.1431C112.588 19.2257 109.939 19.1999 107.627 16.9904L117.166 7.45137L116.193 6.47893C112.304 2.58914 107.298 2.41689 103.402 6.31221C99.5069 10.2075 99.6742 15.3886 103.734 19.4486L103.746 19.4608C107.843 23.5572 112.876 23.6537 116.964 19.5656ZM105.811 8.64398C107.508 6.947 109.763 6.73391 112.037 8.54465L105.648 14.934C103.923 12.6955 104.114 10.3409 105.811 8.64398Z" fill="#1443BD"/>
<path d="M116.964 19.5656C120.525 16.0045 120.537 12.0055 118.98 9.59986L118.885 9.42758L115.889 12.423L115.949 12.5338C116.503 13.7054 116.264 15.549 114.67 17.1431C112.588 19.2257 109.939 19.1999 107.627 16.9904L117.166 7.45137L116.193 6.47893C112.304 2.58914 107.298 2.41689 103.402 6.31221C99.5069 10.2075 99.6742 15.3886 103.734 19.4486L103.746 19.4608C107.843 23.5572 112.876 23.6537 116.964 19.5656ZM105.811 8.64398C107.508 6.947 109.763 6.73391 112.037 8.54465L105.648 14.934C103.923 12.6955 104.114 10.3409 105.811 8.64398Z" fill="black" fill-opacity="0.5"/>
</svg>
