<svg width="68" height="68" viewBox="0 0 68 68" fill="none" xmlns="http://www.w3.org/2000/svg">
<g opacity="0.8">
<path fill-rule="evenodd" clip-rule="evenodd" d="M20.6761 11.571L52.9389 36.4698C53.5654 35.8203 54.4681 35.4478 55.4373 35.5293C57.1474 35.6732 58.4172 37.1761 58.2733 38.8862C58.1295 40.5964 56.6265 41.8661 54.9164 41.7223C53.7661 41.6255 52.8152 40.9139 52.3595 39.938L13.0605 53.3149C13.1713 53.6804 13.2162 54.0726 13.1822 54.4763C13.0383 56.1864 11.5354 57.4561 9.82525 57.3123C8.11511 57.1684 6.84538 55.6655 6.98923 53.9554C7.12785 52.3074 8.52851 51.0684 10.1605 51.1092L17.1894 12.9349C15.7812 12.5416 14.8053 11.1926 14.9323 9.68199C15.0762 7.97185 16.5792 6.70212 18.2893 6.84597C19.9994 6.98982 21.2692 8.49278 21.1253 10.2029C21.0831 10.7051 20.9236 11.1694 20.6761 11.571ZM52.0804 38.3653C52.0701 38.4879 52.067 38.6094 52.0709 38.7294L28.9557 41.6601C28.6459 40.4007 27.562 39.4213 26.198 39.3066C25.901 39.2816 25.6103 39.2993 25.3318 39.3544L19.0621 12.8739C19.5396 12.7052 19.9665 12.4225 20.3071 12.0558L52.5608 36.9476C52.2955 37.3604 52.1244 37.8423 52.0804 38.3653ZM24.7477 39.5318L18.4704 13.019C18.2492 13.0506 18.0213 13.0586 17.7894 13.0406L10.7663 51.1835C11.3335 51.31 11.8374 51.5895 12.237 51.9734L23.1984 43.8711C22.9235 43.3593 22.7888 42.7647 22.8411 42.1426C22.9418 40.9448 23.7093 39.9631 24.7477 39.5318ZM23.5382 44.3776L12.6341 52.4376C12.7042 52.538 12.7686 52.6426 12.8266 52.7509L52.1573 39.3632C52.1549 39.3533 52.1525 39.3434 52.1502 39.3335L29.0422 42.2633C29.0479 42.3951 29.0454 42.5287 29.0341 42.6635C28.8902 44.3737 27.3872 45.6434 25.6771 45.4995C24.8077 45.4264 24.0521 45.002 23.5382 44.3776Z" fill="#B7EE81"/>
<path fill-rule="evenodd" clip-rule="evenodd" d="M20.6761 11.571L52.9389 36.4698C53.5654 35.8203 54.4681 35.4478 55.4373 35.5293C57.1474 35.6732 58.4172 37.1761 58.2733 38.8862C58.1295 40.5964 56.6265 41.8661 54.9164 41.7223C53.7661 41.6255 52.8152 40.9139 52.3595 39.938L13.0605 53.3149C13.1713 53.6804 13.2162 54.0726 13.1822 54.4763C13.0383 56.1864 11.5354 57.4561 9.82525 57.3123C8.11511 57.1684 6.84538 55.6655 6.98923 53.9554C7.12785 52.3074 8.52851 51.0684 10.1605 51.1092L17.1894 12.9349C15.7812 12.5416 14.8053 11.1926 14.9323 9.68199C15.0762 7.97185 16.5792 6.70212 18.2893 6.84597C19.9994 6.98982 21.2692 8.49278 21.1253 10.2029C21.0831 10.7051 20.9236 11.1694 20.6761 11.571ZM52.0804 38.3653C52.0701 38.4879 52.067 38.6094 52.0709 38.7294L28.9557 41.6601C28.6459 40.4007 27.562 39.4213 26.198 39.3066C25.901 39.2816 25.6103 39.2993 25.3318 39.3544L19.0621 12.8739C19.5396 12.7052 19.9665 12.4225 20.3071 12.0558L52.5608 36.9476C52.2955 37.3604 52.1244 37.8423 52.0804 38.3653ZM24.7477 39.5318L18.4704 13.019C18.2492 13.0506 18.0213 13.0586 17.7894 13.0406L10.7663 51.1835C11.3335 51.31 11.8374 51.5895 12.237 51.9734L23.1984 43.8711C22.9235 43.3593 22.7888 42.7647 22.8411 42.1426C22.9418 40.9448 23.7093 39.9631 24.7477 39.5318ZM23.5382 44.3776L12.6341 52.4376C12.7042 52.538 12.7686 52.6426 12.8266 52.7509L52.1573 39.3632C52.1549 39.3533 52.1525 39.3434 52.1502 39.3335L29.0422 42.2633C29.0479 42.3951 29.0454 42.5287 29.0341 42.6635C28.8902 44.3737 27.3872 45.6434 25.6771 45.4995C24.8077 45.4264 24.0521 45.002 23.5382 44.3776Z" fill="white" fill-opacity="0.65"/>
</g>
</svg>
