<svg width="164" height="184" viewBox="0 0 164 184" fill="none" xmlns="http://www.w3.org/2000/svg">
<g opacity="0.6" clip-path="url(#clip0_303_354)">
<path fill-rule="evenodd" clip-rule="evenodd" d="M60.3957 144.096L46.3459 60.3525C44.4688 60.458 42.5616 59.749 41.1957 58.2518C38.7856 55.6102 38.9734 51.515 41.6151 49.105C44.2567 46.6949 48.3519 46.8827 50.7619 49.5243C52.3829 51.3011 52.8287 53.7354 52.143 55.8723L131.15 91.08C131.498 90.3645 131.985 89.7016 132.609 89.1327C135.251 86.7227 139.346 86.9104 141.756 89.5521C144.166 92.1937 143.978 96.2889 141.336 98.699C138.791 101.021 134.896 100.931 132.459 98.5581L67.6563 146.949C69.2514 149.544 68.8327 152.988 66.4992 155.117C63.8576 157.527 59.7624 157.339 57.3524 154.697C54.9423 152.056 55.1301 147.961 57.7718 145.551C58.5475 144.843 59.4487 144.359 60.3957 144.096ZM50.3425 58.6712C50.5319 58.4985 50.7086 58.3171 50.8726 58.1282L90.3516 86.3831C89.0416 88.7469 89.3112 91.7786 91.2335 93.8855C91.652 94.3443 92.1214 94.7291 92.6252 95.0391L64.7075 144.39C63.7389 143.972 62.6861 143.799 61.6463 143.877L47.6005 60.1576C48.5906 59.9024 49.5346 59.4083 50.3425 58.6712ZM93.7691 95.5952L65.8175 145.006C66.2002 145.271 66.5599 145.582 66.8888 145.938L131.638 97.5866C130.951 96.59 130.576 95.4492 130.509 94.2966L102.282 91.1571C101.977 92.3286 101.341 93.4283 100.38 94.3049C98.5302 95.9929 95.967 96.4065 93.7691 95.5952ZM102.48 89.9017L130.56 93.0248C130.595 92.772 130.644 92.5211 130.709 92.2733L51.638 57.0371C51.6277 57.0556 51.6173 57.0741 51.6068 57.0925L91.0737 85.3388C91.2515 85.1293 91.4445 84.9287 91.6529 84.7387C94.2945 82.3286 98.3897 82.5164 100.8 85.158C102.025 86.5011 102.579 88.2198 102.48 89.9017Z" fill="#B7EE81"/>
<path fill-rule="evenodd" clip-rule="evenodd" d="M60.3957 144.096L46.3459 60.3525C44.4688 60.458 42.5616 59.749 41.1957 58.2518C38.7856 55.6102 38.9734 51.515 41.6151 49.105C44.2567 46.6949 48.3519 46.8827 50.7619 49.5243C52.3829 51.3011 52.8287 53.7354 52.143 55.8723L131.15 91.08C131.498 90.3645 131.985 89.7016 132.609 89.1327C135.251 86.7227 139.346 86.9104 141.756 89.5521C144.166 92.1937 143.978 96.2889 141.336 98.699C138.791 101.021 134.896 100.931 132.459 98.5581L67.6563 146.949C69.2514 149.544 68.8327 152.988 66.4992 155.117C63.8576 157.527 59.7624 157.339 57.3524 154.697C54.9423 152.056 55.1301 147.961 57.7718 145.551C58.5475 144.843 59.4487 144.359 60.3957 144.096ZM50.3425 58.6712C50.5319 58.4985 50.7086 58.3171 50.8726 58.1282L90.3516 86.3831C89.0416 88.7469 89.3112 91.7786 91.2335 93.8855C91.652 94.3443 92.1214 94.7291 92.6252 95.0391L64.7075 144.39C63.7389 143.972 62.6861 143.799 61.6463 143.877L47.6005 60.1576C48.5906 59.9024 49.5346 59.4083 50.3425 58.6712ZM93.7691 95.5952L65.8175 145.006C66.2002 145.271 66.5599 145.582 66.8888 145.938L131.638 97.5866C130.951 96.59 130.576 95.4492 130.509 94.2966L102.282 91.1571C101.977 92.3286 101.341 93.4283 100.38 94.3049C98.5302 95.9929 95.967 96.4065 93.7691 95.5952ZM102.48 89.9017L130.56 93.0248C130.595 92.772 130.644 92.5211 130.709 92.2733L51.638 57.0371C51.6277 57.0556 51.6173 57.0741 51.6068 57.0925L91.0737 85.3388C91.2515 85.1293 91.4445 84.9287 91.6529 84.7387C94.2945 82.3286 98.3897 82.5164 100.8 85.158C102.025 86.5011 102.579 88.2198 102.48 89.9017Z" fill="white" fill-opacity="0.65"/>
</g>
<defs>
<clipPath id="clip0_303_354">
<rect width="130" height="130" fill="white" transform="translate(-20 87.6172) rotate(-42.3748)"/>
</clipPath>
</defs>
</svg>
