<svg width="16" height="16" viewBox="0 0 16 16" fill="none" xmlns="http://www.w3.org/2000/svg">
<path d="M7.29565 12.0117L1.62722 6.34323C1.23543 5.95144 1.23543 5.31791 1.62722 4.93029L2.56918 3.98833C2.96097 3.59654 3.5945 3.59654 3.98212 3.98833L8.00004 8.00625L12.018 3.98833C12.4098 3.59654 13.0433 3.59654 13.4309 3.98833L14.3729 4.93029C14.7647 5.32208 14.7647 5.95561 14.3729 6.34323L8.70443 12.0117C8.32098 12.4035 7.68744 12.4035 7.29565 12.0117V12.0117Z" fill="#1443BD"/>
<path d="M7.29565 12.0117L1.62722 6.34323C1.23543 5.95144 1.23543 5.31791 1.62722 4.93029L2.56918 3.98833C2.96097 3.59654 3.5945 3.59654 3.98212 3.98833L8.00004 8.00625L12.018 3.98833C12.4098 3.59654 13.0433 3.59654 13.4309 3.98833L14.3729 4.93029C14.7647 5.32208 14.7647 5.95561 14.3729 6.34323L8.70443 12.0117C8.32098 12.4035 7.68744 12.4035 7.29565 12.0117V12.0117Z" fill="black" fill-opacity="0.5"/>
</svg>
