<svg width="90" height="90" viewBox="0 0 90 90" fill="none" xmlns="http://www.w3.org/2000/svg">
<path d="M45 0C20.16 0 0 20.16 0 45C0 69.84 20.16 90 45 90C69.84 90 90 69.84 90 45C90 20.16 69.84 0 45 0ZM45 13.5C52.47 13.5 58.5 19.53 58.5 27C58.5 34.47 52.47 40.5 45 40.5C37.53 40.5 31.5 34.47 31.5 27C31.5 19.53 37.53 13.5 45 13.5ZM45 77.4C33.75 77.4 23.805 71.64 18 62.91C18.135 53.955 36 49.05 45 49.05C53.955 49.05 71.865 53.955 72 62.91C66.195 71.64 56.25 77.4 45 77.4Z" fill="black"/>
<path d="M17.5001 62.9025L17.4977 63.0576L17.5836 63.1869C23.4774 72.0503 33.5756 77.9 45 77.9C56.4244 77.9 66.5226 72.0503 72.4164 63.1869L72.5023 63.0576L72.4999 62.9025C72.4635 60.4837 71.2245 58.3778 69.3251 56.6013C67.4279 54.8267 64.8377 53.3461 62.0003 52.1605C56.3275 49.7903 49.5459 48.55 45 48.55C40.4317 48.55 33.65 49.7902 27.9827 52.1606C25.148 53.3462 22.562 54.8269 20.6682 56.6016C18.7723 58.3784 17.5365 60.4841 17.5001 62.9025ZM0.5 45C0.5 20.4361 20.4361 0.5 45 0.5C69.5639 0.5 89.5 20.4361 89.5 45C89.5 69.5639 69.5639 89.5 45 89.5C20.4361 89.5 0.5 69.5639 0.5 45ZM59 27C59 19.2539 52.7461 13 45 13C37.2539 13 31 19.2539 31 27C31 34.7461 37.2539 41 45 41C52.7461 41 59 34.7461 59 27Z" stroke="black" stroke-opacity="0.4"/>
</svg>
